<?xml version="1.0" encoding="UTF-8" standalone="no"?>
<!-- Created with Inkscape (http://www.inkscape.org/) -->

<svg
   xmlns:dc="http://purl.org/dc/elements/1.1/"
   xmlns:cc="http://creativecommons.org/ns#"
   xmlns:rdf="http://www.w3.org/1999/02/22-rdf-syntax-ns#"
   xmlns:svg="http://www.w3.org/2000/svg"
   xmlns="http://www.w3.org/2000/svg"
   xmlns:sodipodi="http://sodipodi.sourceforge.net/DTD/sodipodi-0.dtd"
   xmlns:inkscape="http://www.inkscape.org/namespaces/inkscape"
   width="210mm"
   height="297mm"
   viewBox="0 0 744.09448819 1052.3622047"
   id="svg2"
   version="1.1"
   inkscape:version="0.91 r13725"
   inkscape:export-filename="/home/compsci/b1scherercode/code/FullStack/images/LAMP.png"
   inkscape:export-xdpi="74.506523"
   inkscape:export-ydpi="74.506523"
   sodipodi:docname="LAMP.svg">
  <defs
     id="defs4">
    <filter
       inkscape:collect="always"
       style="color-interpolation-filters:sRGB"
       id="filter5730"
       x="-0.028106275"
       width="1.0562125"
       y="-0.038242159"
       height="1.0764843">
      <feGaussianBlur
         inkscape:collect="always"
         stdDeviation="3.2665178"
         id="feGaussianBlur5732" />
    </filter>
  </defs>
  <sodipodi:namedview
     id="base"
     pagecolor="#ffffff"
     bordercolor="#666666"
     borderopacity="1.0"
     inkscape:pageopacity="0.0"
     inkscape:pageshadow="2"
     inkscape:zoom="0.98994949"
     inkscape:cx="400.33869"
     inkscape:cy="530.25964"
     inkscape:document-units="px"
     inkscape:current-layer="layer1"
     showgrid="false"
     inkscape:window-width="1920"
     inkscape:window-height="1149"
     inkscape:window-x="0"
     inkscape:window-y="0"
     inkscape:window-maximized="1" />
  <metadata
     id="metadata7">
    <rdf:RDF>
      <cc:Work
         rdf:about="">
        <dc:format>image/svg+xml</dc:format>
        <dc:type
           rdf:resource="http://purl.org/dc/dcmitype/StillImage" />
        <dc:title></dc:title>
      </cc:Work>
    </rdf:RDF>
  </metadata>
  <g
     inkscape:label="Layer 1"
     inkscape:groupmode="layer"
     id="layer1">
    <flowRoot
       xml:space="preserve"
       id="flowRoot3342"
       style="fill:black;stroke:none;stroke-opacity:1;stroke-width:1px;stroke-linejoin:miter;stroke-linecap:butt;fill-opacity:1;font-family:'Century Schoolbook L';font-style:normal;font-weight:500;font-size:90px;line-height:125%;letter-spacing:0px;word-spacing:0px;-inkscape-font-specification:'Century Schoolbook L Medium';font-stretch:normal;font-variant:normal;"><flowRegion
         id="flowRegion3344"><rect
           id="rect3346"
           width="575.71429"
           height="121.42857"
           x="40"
           y="56.647919"
           style="font-size:90px;-inkscape-font-specification:'Century Schoolbook L Medium';font-family:'Century Schoolbook L';font-weight:500;font-style:normal;font-stretch:normal;font-variant:normal;" /></flowRegion><flowPara
         id="flowPara3348"></flowPara></flowRoot>    <flowRoot
       xml:space="preserve"
       id="flowRoot3350"
       style="fill:black;stroke:none;stroke-opacity:1;stroke-width:1px;stroke-linejoin:miter;stroke-linecap:butt;fill-opacity:1;font-family:'Century Schoolbook L';font-style:normal;font-weight:500;font-size:80px;line-height:125%;letter-spacing:0px;word-spacing:0px;-inkscape-font-specification:'Century Schoolbook L Medium';font-stretch:normal;font-variant:normal;"><flowRegion
         id="flowRegion3352"><rect
           id="rect3354"
           width="527.14288"
           height="165.71428"
           x="50"
           y="85.219345"
           style="-inkscape-font-specification:'Century Schoolbook L Medium';font-family:'Century Schoolbook L';font-weight:500;font-style:normal;font-stretch:normal;font-variant:normal;font-size:80px;" /></flowRegion><flowPara
         id="flowPara3356"></flowPara></flowRoot>    <text
       xml:space="preserve"
       style="font-style:normal;font-weight:normal;font-size:40px;line-height:125%;font-family:sans-serif;letter-spacing:0px;word-spacing:0px;fill:#000000;fill-opacity:1;stroke:none;stroke-width:1px;stroke-linecap:butt;stroke-linejoin:miter;stroke-opacity:1"
       x="130"
       y="155.21935"
       id="text3358"
       sodipodi:linespacing="125%"><tspan
         sodipodi:role="line"
         id="tspan3360"
         x="130"
         y="155.21935"></tspan></text>
    <flowRoot
       xml:space="preserve"
       id="flowRoot3386"
       style="font-style:normal;font-weight:500;font-size:90px;line-height:125%;font-family:'Century Schoolbook L';letter-spacing:0px;word-spacing:0px;fill:#00aa88;fill-opacity:1;stroke:none;stroke-width:1px;stroke-linecap:butt;stroke-linejoin:miter;stroke-opacity:1;-inkscape-font-specification:'Century Schoolbook L Medium';font-stretch:normal;font-variant:normal;"><flowRegion
         id="flowRegion3388"><rect
           id="rect3390"
           width="637.14282"
           height="132.85713"
           x="31.428572"
           y="35.219349"
           style="font-size:90px;-inkscape-font-specification:'Century Schoolbook L Medium';font-family:'Century Schoolbook L';font-weight:500;font-style:normal;font-stretch:normal;font-variant:normal;fill:#00aa88;" /></flowRegion><flowPara
         id="flowPara3392">What is LAMP</flowPara></flowRoot>    <rect
       style="fill:#00aa88;fill-opacity:0.74509804;stroke:#00ffcc;stroke-width:3.5;stroke-miterlimit:4;stroke-dasharray:none;stroke-opacity:0.69019608;filter:url(#filter5730)"
       id="rect5720"
       width="278.92856"
       height="205"
       x="53.928574"
       y="165.93364" />
    <path
       style="opacity:0.73000004;fill:#00aa88;fill-opacity:0.74509804;stroke:#00d4aa;stroke-width:2.66397166;stroke-miterlimit:4;stroke-dasharray:none;stroke-opacity:1"
       id="path5790"
       d="m 322.79019,180.3909 c 4.32696,-4.47535 9.11372,-7.31636 13.78918,-10.45401 4.36749,-2.87318 8.91826,-4.70879 13.54092,-5.7188 5.29902,-0.85496 10.65436,-0.49935 15.96207,-0.49398 3.30269,0.037 6.60544,0.0534 9.9082,0.064 4.15608,0.0168 8.31218,0.0133 12.46827,0.0152 0.70918,-1.5e-4 2.83673,-4.3e-4 2.12755,-4.6e-4 -1.9154,-7e-5 -3.83078,5.6e-4 -5.74617,3.1e-4 -0.69956,-9e-5 1.39909,-6.7e-4 2.09864,-7.7e-4 0.70723,-9e-5 1.4145,-0.0118 2.1217,2e-4 10.30386,0.1739 6.73692,-0.18175 12.07294,0.45364 3.55634,0.18692 7.06418,1.22544 10.59935,1.82001 3.80517,0.75351 7.53874,2.12662 11.26735,3.6103 4.47338,1.79591 8.95932,3.50227 13.45112,5.1518 3.51315,1.56046 6.70427,4.609 9.84762,7.67292 2.74447,2.83301 4.18558,7.26841 5.12095,12.41083 0.86942,6.44063 0.86825,13.09835 0.92861,19.6772 0.0391,6.19306 0.038,12.38656 0.0489,18.5799 0.33975,4.36015 1.08881,8.58527 1.80242,12.79361 0.73222,4.48929 1.08107,9.18328 2.19612,13.45082 1.81207,3.82366 5.20434,3.33348 7.79708,3.55468 2.25285,0.0937 2.15446,0.10676 4.39592,0.13232 0.72937,0.008 2.91754,0.009 2.18815,0.0101 -11.6991,0.005 -5.12796,-0.0101 -2.50906,-0.0402 2.44562,0.13007 4.86122,-0.61189 7.28525,-1.04524 1.49469,-0.21541 2.92419,-1.03465 4.35787,-1.74718 0,0 8.03991,1.83624 8.03991,1.83624 l 0,0 c -1.45495,0.69746 -2.88261,1.61557 -4.3796,1.99577 -2.45069,0.37746 -4.88259,1.21042 -7.34781,1.1558 -6.64938,0.0579 -13.30179,0.18777 -19.94861,-0.18487 -2.90047,-0.33128 -6.30442,-0.19488 -7.97338,-5.09146 -1.01817,-4.38638 -1.43565,-9.07687 -2.17508,-13.61671 -0.74456,-4.33475 -1.52076,-8.69109 -1.80301,-13.20814 0.0352,-6.18335 0.0676,-12.3674 0.0285,-18.55094 -0.0679,-6.438 -0.0871,-12.97157 -0.99586,-19.25155 -0.94994,-4.84541 -2.3986,-8.84785 -5.05497,-11.36268 -3.11665,-2.97289 -6.28046,-5.91256 -9.77608,-7.27287 -4.48284,-1.69686 -8.96806,-3.3768 -13.43844,-5.17206 -3.74006,-1.4683 -7.50339,-2.70953 -11.31808,-3.42624 -3.51138,-0.65653 -7.00765,-1.57415 -10.54277,-1.78295 -4.25779,-0.45693 -2.18443,-0.14247 3.73233,-0.3649 0.70639,-0.0266 -1.41309,4.1e-4 -2.11964,3.7e-4 -4.75777,-2.7e-4 -9.51554,5.9e-4 -14.2733,-8.3e-4 -4.17113,9.8e-4 -8.34225,-0.003 -12.51337,-0.005 -3.31381,-0.0112 -6.62759,-0.033 -9.94137,-0.0565 13.94245,-0.0112 3.1424,-0.20777 -0.0346,0.33245 -4.65242,0.83541 -9.24284,2.52716 -13.64406,5.33925 -4.60309,3.07856 -9.33505,5.82645 -13.58468,10.2482 0,0 -8.05693,-1.45701 -8.05693,-1.45701 z"
       inkscape:connector-curvature="0" />
    <path
       style="fill:#00aa88;fill-opacity:0.74509804;stroke:#00d4aa;stroke-width:3.5;stroke-miterlimit:4;stroke-dasharray:none;stroke-opacity:1;opacity:0.84"
       id="path5804"
       d="m 338.5324,356.03814 c 5.05764,1.19578 10.21862,1.73619 15.39152,2.10284 4.28372,0.20838 12.77994,0.58827 -9.05629,0.0248 -0.71149,-0.0184 1.42084,-0.0877 2.1301,-0.14685 1.95749,-0.16317 3.91089,-0.39173 5.86714,-0.57102 3.56558,-0.33069 7.14653,-0.40746 10.72484,-0.45802 7.49034,0.58547 16.81039,-0.99363 24.32101,1.95461 3.68932,1.57191 5.83306,4.62895 7.82859,7.93239 1.57303,3.81461 2.96021,7.73383 4.10618,11.7023 1.38966,4.27192 2.2526,8.69331 3.41084,13.03353 0.93234,4.514 3.28468,8.48297 5.27664,12.5702 2.18401,4.21044 4.20515,8.50672 5.93183,12.92512 1.77075,4.58623 2.21358,9.48712 2.46005,14.35197 0.18289,5.32854 0.11616,10.6628 0.10028,15.99366 -6e-4,5.08029 -0.0134,10.16055 -0.003,15.24084 -0.0652,4.48843 -0.003,8.95024 0.38698,13.42212 1.03288,5.18171 1.38207,10.48596 2.43247,15.65511 1.12154,5.42711 2.63747,10.74616 4.98177,15.77086 2.53155,5.11314 6.29269,9.4037 10.12194,13.57062 4.18604,4.60689 9.84993,6.94566 15.56196,9.05699 6.26014,2.47245 12.92428,3.21495 19.57846,3.69909 5.35652,0.4301 29.97939,0.31377 4.8476,0.30273 5.03672,-0.0714 10.08198,0.23976 15.07794,-0.49856 5.31644,-1.26852 9.92927,-4.34134 14.37265,-7.40413 2.48544,-1.8626 1.27537,-0.91947 3.63274,-2.82614 0,0 13.98902,1.24046 13.98902,1.24046 l 0,0 c -2.3804,1.97481 -1.15808,0.99681 -3.66957,2.93073 -4.48879,3.17633 -9.16611,6.28733 -14.42667,8.01121 -5.00612,1.03266 -10.07987,0.68693 -15.16794,0.73281 -10.80439,-0.001 -21.64241,0.21478 -32.43688,-0.419 -6.6989,-0.58432 -13.36739,-1.52954 -19.64158,-4.09169 -5.81352,-2.29376 -11.46984,-4.87989 -15.6566,-9.70317 -3.87422,-4.29493 -7.64945,-8.72676 -10.15141,-13.99655 -2.35456,-5.13571 -3.83459,-10.5763 -5.00243,-16.09817 -1.04357,-5.22489 -1.4385,-10.56888 -2.44966,-15.8068 -0.42326,-4.51238 -0.55005,-9.01704 -0.41886,-13.54997 0.0213,-5.08089 0.0272,-10.16183 0.0584,-15.24267 0.009,-5.30566 0.0424,-10.61339 -0.14504,-15.91669 -0.25719,-4.71624 -0.68485,-9.45944 -2.43589,-13.89698 -1.75934,-4.37522 -3.81271,-8.61612 -5.96576,-12.80989 -2.0716,-4.14517 -4.28199,-8.27187 -5.26811,-12.84713 -1.16269,-4.33078 -2.03222,-8.74026 -3.43518,-13.00204 -1.13077,-3.8468 -2.45939,-7.68035 -4.12293,-11.32447 -1.93871,-3.09746 -4.15914,-5.76027 -7.75758,-6.96183 -5.59503,-1.62374 -20.6163,-1.87373 3.60952,-1.51069 -3.57935,0.029 -7.16199,0.068 -10.73233,0.349 -8.88713,0.73197 -17.77552,1.82147 -26.72454,0.69659 -5.2194,-0.43928 -10.41119,-1.10538 -15.52161,-2.28502 0,0 13.98892,-1.90309 13.98892,-1.90309 z"
       inkscape:connector-curvature="0" />
    <path
       style="fill:#00aa88;fill-opacity:0.74509804;stroke:#00d4aa;stroke-width:3.5;stroke-miterlimit:4;stroke-dasharray:none;stroke-opacity:1;opacity:0.80000001"
       id="path5806"
       d="m 254.02295,364.1413 c -0.45338,5.38613 -1.08757,10.74069 -1.79038,16.09917 -0.43253,5.02509 -0.95096,10.03045 -1.54248,15.03978 -0.56673,4.12637 -0.31348,8.31696 -1.32873,12.36906 -1.11259,3.0815 -1.74215,6.24867 -2.06577,9.49871 -0.31269,4.47768 -0.30261,8.97171 -0.30297,13.45819 0.003,4.73619 0.0177,9.47238 0.0201,14.20858 0.0105,4.61854 -0.002,9.23705 0.0119,13.85559 0.004,5.48329 -0.0441,10.96638 -0.0612,16.44961 0.22339,7.80193 -0.13873,15.53044 -1.07951,23.27172 -1.00476,5.59038 -2.18892,11.13633 -2.75837,16.79255 -0.3901,4.51632 -0.3946,9.0526 -0.41962,13.58195 -0.014,4.77295 0.0157,9.5458 0.016,14.31875 -0.20281,4.5885 0.65294,8.99222 2.26468,13.25956 2.55033,5.3518 4.65159,10.87943 6.75654,16.41797 1.75526,6.01022 3.88536,11.92779 5.31389,18.0272 1.72121,6.23707 3.8107,12.35727 5.92164,18.46931 2.76688,7.02347 6.5098,13.59078 9.77612,20.38176 3.16559,6.72893 6.62709,13.3771 10.97347,19.42379 4.28239,5.14422 9.67666,9.20315 15.10097,13.06244 4.29311,2.95836 8.51026,6.10593 13.191,8.43096 4.5857,2.045 9.40198,3.52976 14.14226,5.17513 4.72646,1.31256 9.36779,2.56564 13.70613,4.90431 3.56205,1.89105 6.84117,4.19734 10.55615,5.79828 4.27802,1.88034 8.10206,4.67783 11.44253,7.91923 3.14628,3.09235 5.93887,6.47872 7.93189,10.42025 1.81966,5.02412 4.31794,9.74086 6.56579,14.57352 2.30653,4.6325 4.87918,9.10875 6.98568,13.84098 1.96436,4.82545 2.95329,9.95813 3.45072,15.12294 0.31548,3.81518 0.28975,7.64511 0.28858,11.46971 -0.32279,3.92949 0.32939,7.50313 2.0285,11.03898 2.05246,3.96388 5.52966,6.74471 8.60345,9.85274 3.27448,3.09126 7.29364,4.96518 11.18414,7.09176 3.34811,2.09529 7.16696,2.64655 10.91336,3.53949 3.44798,0.88572 6.99984,1.13799 10.54175,1.30323 1.59172,0.0634 3.18466,0.0763 4.77735,0.0904 0,0 -13.95077,2.18995 -13.95077,2.18995 l 0,0 c -1.59,-0.0296 -3.18039,-0.0587 -4.76828,-0.15283 -3.55789,-0.23629 -7.10232,-0.63211 -10.56141,-1.5375 -3.8223,-0.82211 -7.5326,-1.87567 -10.91759,-3.91892 -4.01018,-2.09699 -7.93724,-4.32639 -11.2225,-7.49959 -3.22689,-3.15582 -6.6214,-6.23261 -8.65397,-10.351 -1.65725,-3.73687 -2.39883,-7.54763 -2.0685,-11.64982 0.0155,-3.77786 0.0309,-7.56128 -0.24394,-11.33157 -0.48387,-5.0145 -1.36515,-10.01058 -3.38794,-14.66063 -2.17691,-4.68561 -4.72263,-9.17223 -6.96001,-13.82677 -2.26634,-4.81182 -4.70487,-9.54189 -6.64621,-14.50115 -2.07045,-3.73431 -4.77139,-7.02086 -7.87483,-9.95631 -3.40635,-3.06445 -7.17986,-5.69848 -11.43173,-7.4658 -3.62908,-1.76249 -6.96265,-4.01241 -10.54335,-5.86371 -4.36241,-2.1352 -9.02782,-3.24057 -13.63777,-4.7083 -4.79387,-1.62644 -9.6537,-3.16972 -14.21444,-5.38278 -4.58334,-2.5378 -8.84857,-5.60208 -13.11119,-8.63808 -5.45803,-3.99352 -10.90858,-8.16171 -15.10544,-13.52401 -4.28326,-6.16325 -7.73136,-12.86892 -10.91991,-19.65404 -3.33616,-6.82047 -7.11117,-13.4388 -9.84793,-20.53896 -2.17639,-6.14671 -4.20437,-12.34376 -6.00832,-18.61084 -1.45286,-6.02466 -3.38457,-11.92997 -5.22337,-17.8451 -2.13838,-5.54339 -4.37406,-11.03889 -6.8778,-16.42739 -1.62114,-4.43134 -2.47555,-9.01444 -2.27043,-13.75682 -0.0131,-4.7752 -0.0111,-9.55044 -0.019,-14.32562 0.007,-4.57516 0.009,-9.16029 0.42799,-13.72023 0.59118,-5.67547 1.78949,-11.23048 2.90866,-16.82185 0.98592,-7.67886 1.31168,-15.35633 1.02803,-23.09925 -0.017,-5.48318 -0.0646,-10.96623 -0.0613,-16.44947 0.013,-4.61811 -6.5e-4,-9.2362 0.002,-13.85431 -0.007,-4.73732 -0.0111,-9.47463 -0.0113,-14.21195 0.0123,-4.53199 -0.0328,-9.06805 0.22374,-13.59487 0.32458,-3.32402 0.87529,-6.59021 2.07787,-9.72564 1.11567,-3.96037 0.79894,-8.11798 1.39555,-12.17165 0.61567,-5.01255 1.13198,-10.02407 1.56069,-15.05554 0.70965,-5.33927 1.45368,-10.66726 1.69741,-16.05581 0,0 14.10195,0.14056 14.10195,0.14056 z"
       inkscape:connector-curvature="0" />
    <path
       style="fill:#00aa88;fill-opacity:0.74509804;stroke:#00d4aa;stroke-width:3.5;stroke-miterlimit:4;stroke-dasharray:none;stroke-opacity:1;opacity:0.82"
       id="path5810"
       d="m 132.26934,359.55898 c -2.17598,4.76134 -4.81482,9.28209 -6.84141,14.11248 -2.0755,5.02971 -3.16204,10.36271 -5.0302,15.4647 -1.44705,4.0218 -2.99887,8.0015 -3.96145,12.17256 -1.27567,4.127 -1.76025,8.40485 -2.04464,12.69546 -0.27392,5.48609 -1.66864,10.83169 -2.35044,16.28101 -0.47435,6.32679 -0.91973,12.65173 -1.43579,18.97701 -0.95166,6.47497 -1.30968,13.01522 -2.06399,19.50956 -0.54837,4.97935 -1.1626,9.89242 -2.42974,14.7432 -1.18703,4.8017 -1.89716,9.71669 -2.50664,14.62181 -0.98794,6.97365 -1.96405,13.95237 -2.7475,20.95249 -0.67139,7.32131 -2.06984,14.56485 -3.260565,21.81903 -1.043402,7.04978 -1.890691,14.13461 -2.586126,21.22779 -0.805369,9.32795 -0.88444,18.69632 -0.97225,28.05215 -0.03461,8.85473 -0.02793,17.70993 0.03661,26.56452 0.0401,5.62245 0.06349,11.24485 0.07901,16.86737 -0.0038,4.49362 0.02143,8.9873 0.02024,13.48095 0.01633,3.74539 0.0092,7.49078 0.01573,11.23618 0.164218,3.79732 -0.640843,7.41493 -2.269909,10.82159 -1.653194,2.96355 -2.765666,6.17242 -3.964143,9.334 -1.008582,3.3096 -2.287047,6.48838 -3.844638,9.57655 -1.648985,3.12076 -3.170696,6.28463 -4.453832,9.57338 -1.507848,4.08796 -3.824788,7.79251 -5.917646,11.59214 -1.824428,3.50442 -3.984517,6.78967 -5.585967,10.40692 -1.567832,3.99765 -3.958173,7.56477 -6.295822,11.13781 -1.915505,2.6795 -3.46089,5.59037 -5.279862,8.33509 0,0 -14.048111,-0.8333 -14.048111,-0.8333 l 0,0 c 1.859877,-2.71927 3.368526,-5.64297 5.274631,-8.32407 2.331502,-3.48528 4.749821,-6.95631 6.296206,-10.88131 1.519447,-3.71212 3.731727,-6.99733 5.573997,-10.54843 2.057558,-3.75317 4.446944,-7.35387 5.934973,-11.39063 1.220609,-3.36459 2.716936,-6.58626 4.410842,-9.73823 1.589525,-3.0209 2.88246,-6.14286 3.850238,-9.41878 1.224285,-3.19802 2.262711,-6.48572 3.974624,-9.47325 1.660233,-3.17844 2.412438,-6.56559 2.249803,-10.16949 0.0066,-3.7454 -4.39e-4,-7.49078 0.01593,-11.23617 -0.0012,-4.49348 0.02399,-8.98698 0.01757,-13.48045 0.01147,-5.62228 0.02633,-11.24449 0.05536,-16.86676 0.0505,-8.85914 0.03608,-17.71855 0.111396,-26.57759 0.07546,-9.39342 0.101331,-18.80189 0.844319,-28.17163 0.65613,-7.12703 1.479205,-14.24477 2.55169,-21.3209 1.169556,-7.23589 2.640777,-14.44193 3.295256,-21.74388 0.731316,-7.0076 1.718587,-13.98761 2.648754,-20.971 0.58326,-4.97052 1.220192,-9.96059 2.434659,-14.82095 1.309546,-4.7825 1.912595,-9.62639 2.491703,-14.54581 0.827116,-6.46768 1.18499,-12.99437 2.110109,-19.45418 0.525296,-6.34335 0.938396,-12.68769 1.391244,-19.03451 0.661494,-5.42507 2.023707,-10.74544 2.312467,-16.19889 0.26977,-4.36044 0.6601,-8.73229 1.98036,-12.9245 0.97406,-4.23958 2.52084,-8.28246 4.04498,-12.35013 1.91048,-5.10784 3.00983,-10.44788 5.04778,-15.51174 1.9401,-4.85733 4.6673,-9.32052 6.68479,-14.14181 0,0 14.1354,0.57264 14.1354,0.57264 z"
       inkscape:connector-curvature="0" />
    <ellipse
       style="fill:none;fill-opacity:0.74509804;stroke:#000000;stroke-width:3.5;stroke-miterlimit:4;stroke-dasharray:none;stroke-opacity:1"
       id="path5812"
       cx="187.14285"
       cy="262.36218"
       rx="77.14286"
       ry="80" />
    <flowRoot
       xml:space="preserve"
       id="flowRoot5814"
       style="font-style:normal;font-variant:normal;font-weight:500;font-stretch:normal;font-size:40px;line-height:125%;font-family:aakar;-inkscape-font-specification:'aakar Medium';letter-spacing:0px;word-spacing:0px;fill:#000080;fill-opacity:1;stroke:none;stroke-width:1px;stroke-linecap:butt;stroke-linejoin:miter;stroke-opacity:1"
       transform="translate(3.9285714,14.642857)"><flowRegion
         id="flowRegion5816"><rect
           id="rect5818"
           width="118.21429"
           height="62.857143"
           x="129.64285"
           y="227.00507"
           style="font-style:normal;font-variant:normal;font-weight:500;font-stretch:normal;font-family:aakar;-inkscape-font-specification:'aakar Medium';fill:#000080" /></flowRegion><flowPara
         id="flowPara5820">LAMP</flowPara></flowRoot>    <rect
       style="fill:#000080;fill-opacity:0.74509804;stroke:#214478;stroke-width:3.5;stroke-miterlimit:4;stroke-dasharray:none;stroke-opacity:1"
       id="rect5822"
       width="272.85715"
       height="185.71428"
       x="14.285714"
       y="738.07648" />
    <rect
       style="fill:#000080;fill-opacity:0.74509804;stroke:#214478;stroke-width:3.5;stroke-miterlimit:4;stroke-dasharray:none;stroke-opacity:1"
       id="rect5824"
       width="284.28571"
       height="157.14285"
       x="417.14285"
       y="769.50507" />
    <rect
       style="fill:#000080;fill-opacity:0.74509804;stroke:#214478;stroke-width:3.5;stroke-miterlimit:4;stroke-dasharray:none;stroke-opacity:1"
       id="rect5826"
       width="228.57143"
       height="197.14285"
       x="501.42856"
       y="509.50507" />
    <rect
       style="fill:#000080;fill-opacity:0.74509804;stroke:#214478;stroke-width:4.63683701;stroke-miterlimit:4;stroke-dasharray:none;stroke-opacity:1"
       id="rect5828"
       width="251.82693"
       height="260.29172"
       x="483.31891"
       y="234.35919" />
    <ellipse
       style="opacity:0.81999984;fill:#ff0000;fill-opacity:0.74509804;stroke:#d40000;stroke-width:3.5;stroke-miterlimit:4;stroke-dasharray:none;stroke-opacity:1"
       id="path5832"
       cx="95.714287"
       cy="335.93362"
       rx="27.142857"
       ry="22.142857" />
    <ellipse
       style="opacity:0.81999984;fill:#ff0000;fill-opacity:0.74509804;stroke:#d40000;stroke-width:3.5;stroke-miterlimit:4;stroke-dasharray:none;stroke-opacity:1"
       id="path5834"
       cx="292.85715"
       cy="333.07648"
       rx="22.857143"
       ry="23.571428" />
    <ellipse
       style="opacity:0.81999984;fill:#ffffff;fill-opacity:0.74509804;stroke:#000000;stroke-width:3.5;stroke-miterlimit:4;stroke-dasharray:none;stroke-opacity:1"
       id="path5836"
       cx="290.71429"
       cy="208.79077"
       rx="25"
       ry="22.142857" />
    <ellipse
       style="opacity:0.81999984;fill:#ffffff;fill-opacity:0.74509804;stroke:#000000;stroke-width:3.5;stroke-miterlimit:4;stroke-dasharray:none;stroke-opacity:1"
       id="path5838"
       cx="91.428574"
       cy="215.21935"
       rx="21.428572"
       ry="15.714286" />
    <path
       style="opacity:0.99999999;fill:#ffffff;fill-opacity:0.74509804;stroke:#ffffff;stroke-width:3.5;stroke-miterlimit:4;stroke-dasharray:none;stroke-opacity:1"
       id="path5846"
       d="m 79.936839,322.66104 c 0.516499,0.75667 1.140536,1.42899 1.716609,2.13853 0.518917,0.60811 1.008773,1.23775 1.501764,1.8666 0.38117,0.57302 0.741763,1.15978 1.110872,1.74091 0.398005,0.57754 0.93726,1.03691 1.402197,1.56007 0.435497,0.44401 0.775147,1.03425 1.37445,1.26524 -0.780587,-0.0216 -1.561467,-0.0344 -2.341762,-0.0648 -0.01932,-7.5e-4 0.04816,-0.006 0.05267,-0.0243 0.02201,-0.0919 -0.07096,-0.27947 -0.09511,-0.33847 -0.12367,-0.30213 -0.08508,-0.21111 -0.241163,-0.50863 -0.328824,-0.59585 -0.580083,-1.22745 -0.832179,-1.85874 -0.294266,-0.75875 -0.485369,-1.54939 -0.707491,-2.33071 -0.144919,-0.70026 -0.288178,-1.40023 -0.51955,-2.07797 -0.284855,-0.6472 -0.648312,-1.25874 -1.006865,-1.86769 -0.341813,-0.49889 -0.618633,-1.03736 -0.951068,-1.5419 -0.41081,-0.53699 -1.006965,-0.79914 -1.6147,-1.04421 -0.368278,-0.11078 -0.742698,-0.23049 -1.126638,-0.27581 -0.09561,-0.0113 -0.384944,-0.01 -0.288677,-0.009 2.320983,0.0197 2.986745,-0.17525 2.153645,0.0553 -0.08197,0.35674 0.218843,0.81555 0.381333,1.114 0.393127,0.57119 0.72455,1.1623 0.940436,1.82193 0.202977,0.70107 0.638002,1.25567 1.180251,1.72751 0.582335,0.47965 1.247743,0.84195 1.871883,1.26257 0.263225,0.21908 0.557273,0.38749 0.855206,0.55224 0.08971,0.0496 0.167868,0.12785 0.267602,0.15157 0.05754,0.0137 0.230171,-0.0463 0.171032,-0.0472 -0.806742,-0.0123 -1.613648,0.009 -2.420473,0.0129 -0.327159,-0.62931 -0.858427,-1.10751 -1.363743,-1.5908 -0.431736,-0.3729 -0.824304,-0.76443 -1.15217,-1.23062 0,0 2.476366,-0.15757 2.476366,-0.15757 l 0,0 c 0.339674,0.43826 0.732192,0.81862 1.144369,1.1896 0.550407,0.53686 1.29225,1.16042 1.402486,1.95696 -2.686088,0.20607 -2.247709,0.5586 -3.854702,-0.59274 -0.635331,-0.41649 -1.302821,-0.7935 -1.872352,-1.30122 -0.543111,-0.52262 -0.987867,-1.11654 -1.195102,-1.85286 -0.21959,-0.64363 -0.57185,-1.21013 -0.938823,-1.77996 -0.238286,-0.45344 -0.494886,-0.93938 -0.392533,-1.4666 0.686713,-0.80272 3.116062,-0.21227 4.228912,0.16811 0.63369,0.2732 1.236251,0.60776 1.635619,1.1925 0.326049,0.5121 0.615426,1.04669 0.949603,1.55398 0.358842,0.62514 0.730813,1.24878 1.001782,1.91808 0.227646,0.68401 0.376801,1.38549 0.521933,2.09072 0.21412,0.7739 0.403299,1.55558 0.703483,2.30246 0.259868,0.62241 0.513535,1.2467 0.841695,1.83709 0.924893,1.85135 0.15708,1.3632 -2.34993,1.32873 -0.550891,-0.34791 -0.932078,-0.88727 -1.371991,-1.35839 -0.475447,-0.52774 -1.024481,-0.9965 -1.405666,-1.6015 -0.361655,-0.57691 -0.718694,-1.1579 -1.107886,-1.71655 -0.486008,-0.62912 -0.978027,-1.25214 -1.489177,-1.86127 -0.587659,-0.71142 -1.195232,-1.40704 -1.73932,-2.15348 0,0 2.492878,-0.15481 2.492878,-0.15481 z"
       inkscape:connector-curvature="0" />
    <path
       style="opacity:1;fill:#ffffff;fill-opacity:0.74509804;stroke:#ffffff;stroke-width:3.5;stroke-miterlimit:4;stroke-dasharray:none;stroke-opacity:1"
       id="path5848"
       d="m 112.93847,320.7671 c -0.59717,0.50445 -1.0267,1.16837 -1.42963,1.83002 -0.36281,0.70648 -0.63077,1.45263 -1.02982,2.14033 -0.4058,0.71397 -0.93422,1.33989 -1.47867,1.94987 -0.54489,0.56799 -1.05634,1.15634 -1.38911,1.87365 -0.24443,0.63593 -0.27823,1.07783 0.35823,1.42566 0.31677,0.0902 0.64405,0.13219 0.97159,0.15791 0.11258,0.009 0.45117,0.0195 0.33824,0.0194 -2.33347,-0.001 -2.72953,0.0943 -1.65078,-0.0939 0.94983,-0.25774 1.79398,-0.76619 2.58321,-1.3396 0.66805,-0.48247 1.20194,-1.10615 1.66721,-1.77982 0.41828,-0.51366 0.58281,-1.11461 0.74256,-1.73976 0.15159,-0.56678 0.30605,-1.13867 0.54465,-1.67585 0.2274,-0.5247 0.40309,-1.03155 -0.0212,-1.49317 -0.41968,-0.35084 -1.02625,-0.5686 -1.54639,-0.73492 -1.14858,-0.05 1.39808,-0.008 2.09591,0.0264 0.0457,0.002 -0.0855,0.0387 -0.11689,0.072 -0.14367,0.15273 -0.10717,0.33316 -0.0749,0.51688 0.0226,0.52548 0.52897,0.83485 0.64642,1.30559 -0.0296,0.13823 -0.024,0.24258 -0.1536,0.33419 -0.26572,0.18786 -0.91892,0.1897 -1.23552,0.23187 -0.80439,0.0939 -1.566,0.29801 -2.27508,0.68896 -0.5461,0.31401 -0.93332,0.78156 -1.18227,1.35288 -0.16839,0.63638 -0.25328,1.28673 -0.41685,1.92621 -0.11634,0.5943 -0.0905,1.20194 -0.0827,1.80382 -0.0228,0.63497 -0.17226,1.2509 -0.30008,1.86986 -0.0962,1.01417 1.02716,0.74019 -2.36783,0.0922 -0.0862,-0.0164 0.10369,-0.14197 0.14759,-0.21793 0.13489,-0.23347 0.16454,-0.34329 0.26125,-0.59748 0.21307,-0.75228 0.60839,-1.41366 1.02155,-2.06813 0.3778,-0.61202 0.81729,-1.17217 1.38375,-1.61691 0.64483,-0.43845 1.35787,-0.75905 2.03271,-1.14813 0.63324,-0.35603 1.23049,-0.74437 1.76749,-1.23374 0.29395,-0.33274 0.91128,-0.9028 0.59622,-1.38258 -0.80398,-0.0947 -2.30714,-0.2556 1.77398,0.008 0.10922,0.007 -0.21339,0.0496 -0.31804,0.0816 -0.26527,0.0812 -0.40408,0.14813 -0.65933,0.25654 -0.6538,0.30078 -1.20082,0.76894 -1.72913,1.24791 -0.57255,0.49294 -1.06367,1.03443 -1.42621,1.69824 -0.29267,0.62995 -0.35923,1.3179 -0.39208,2.00214 0.008,0.10266 -0.001,0.20787 0.0226,0.30798 0.0344,0.14369 0.10929,0.26282 0.25623,0.30677 0.0517,0.0155 0.21582,-10e-4 0.16187,-0.003 -2.38012,-0.0696 -2.97272,0.32594 -2.07776,-0.19142 0.50886,-0.45865 0.84381,-1.0652 1.23991,-1.61635 0.42193,-0.57225 0.91108,-1.08934 1.40335,-1.6006 0.46785,-0.44724 0.87436,-0.93032 1.10676,-1.5375 0.0786,-0.72725 -0.242,-1.06631 -0.87217,-1.33619 -0.0919,-0.0258 -0.18376,-0.0515 -0.27564,-0.0773 0,0 2.47495,-0.3088 2.47495,-0.3088 l 0,0 c 0.093,0.0375 0.18601,0.0749 0.27901,0.1124 0.68099,0.40118 0.9624,0.89116 0.88432,1.69736 -0.22732,0.64666 -0.61367,1.17415 -1.11711,1.64106 -0.48808,0.50212 -0.97526,1.00786 -1.40011,1.56588 -0.41434,0.56307 -0.76107,1.17561 -1.23888,1.68984 -0.0755,0.0708 -0.12348,0.2027 -0.22656,0.21252 -0.0802,0.008 -2.50718,0.6895 -2.99231,-0.251 -0.12284,-0.23815 -0.10134,-0.35924 -0.11816,-0.62367 0.0349,-0.72087 0.1092,-1.44167 0.40025,-2.11166 0.36053,-0.69375 0.83063,-1.27644 1.42925,-1.78244 0.53469,-0.49703 1.08429,-0.98817 1.73699,-1.3271 1.41296,-0.67086 1.52067,-0.4833 3.72542,-0.44791 0.0896,0.001 0.17798,0.0404 0.25406,0.0877 0.0773,0.048 0.12979,0.12755 0.19468,0.19133 0.0297,0.0848 0.0764,0.16555 0.0892,0.25455 0.08,0.55698 -0.3828,1.05249 -0.70705,1.43791 -0.53372,0.51899 -1.12439,0.93068 -1.77727,1.28975 -0.66763,0.39248 -1.36358,0.72655 -2.02757,1.12284 -0.57977,0.3908 -0.99871,0.93854 -1.37418,1.52397 -0.40611,0.63942 -0.82532,1.27025 -1.01819,2.01511 -0.0328,0.0931 -0.31345,0.88061 -0.39685,0.89114 -2.06432,0.26046 -2.76269,0.91962 -2.62189,-0.30608 0.12441,-0.60092 0.27103,-1.19875 0.29755,-1.8149 -0.0127,-0.62442 -0.0274,-1.25416 0.0907,-1.87069 0.16881,-0.64984 0.24976,-1.30955 0.41108,-1.95975 0.23724,-0.62247 0.63409,-1.15253 1.201,-1.51536 0.7074,-0.43521 1.46317,-0.68158 2.28913,-0.7866 0.442,-0.0578 0.90103,-0.12935 1.339,-0.1409 -0.14848,-0.4362 -0.62834,-0.80846 -0.63755,-1.33587 -0.22932,-1.63753 1.59937,-1.34937 3.07199,-0.95919 0.55799,0.22123 1.16069,0.40808 1.56278,0.87837 0.38065,0.58851 0.28887,1.13994 0.0209,1.76285 -0.24807,0.51766 -0.39176,1.08 -0.54596,1.63114 -0.1697,0.64947 -0.31315,1.28963 -0.7527,1.82489 -0.46799,0.70095 -1.00613,1.35576 -1.68689,1.86212 -0.79337,0.59821 -1.63744,1.12845 -2.58791,1.44213 -1.31939,0.36978 -0.3866,0.14878 -3.2673,0.13176 -0.45574,-0.003 -0.92574,-0.10966 -1.33429,-0.30665 -0.60876,-0.50266 -0.62628,-1.05505 -0.35568,-1.77244 0.32826,-0.74735 0.82437,-1.37266 1.39965,-1.94995 0.5395,-0.59383 1.06708,-1.20238 1.46761,-1.90194 0.41661,-0.67954 0.69103,-1.42436 1.03738,-2.14038 0.40285,-0.68428 0.84031,-1.36117 1.41526,-1.91505 0,0 2.49064,0.21875 2.49064,0.21875 z"
       inkscape:connector-curvature="0" />
    <path
       style="opacity:1;fill:#ffffff;fill-opacity:0.74509804;stroke:#ffffff;stroke-width:3.5;stroke-miterlimit:4;stroke-dasharray:none;stroke-opacity:1"
       id="path5850"
       d="m 81.422463,352.5451 c 0.509557,-1.05731 1.041008,-2.1027 1.671434,-3.0933 0.681372,-1.06107 1.410188,-2.09035 2.11009,-3.1393 0.53894,-0.81103 1.099668,-1.60316 1.725897,-2.34905 1.457899,-1.70012 1.369945,-1.20496 4.16449,-1.1579 0.517312,0.29289 0.646292,0.82945 0.790086,1.36141 0.192871,0.74037 0.409396,1.4743 0.614679,2.21175 0.222572,0.79192 0.32505,1.6074 0.387142,2.42536 0.0337,0.64951 0.03807,1.30011 0.03568,1.95034 -0.01399,0.63977 0.02598,1.28185 -0.03395,1.91941 -0.05942,0.69282 -0.228172,1.36338 -0.453649,2.01895 -0.276596,0.7913 -0.731432,1.4884 -1.245881,2.14238 -1.128951,1.16197 -3.023067,0.79728 -4.200122,-0.0986 -0.563449,-0.54084 -1.090205,-1.12466 -1.57772,-1.7349 -0.486185,-0.687 -0.87671,-1.43885 -1.529906,-1.98503 -0.538174,-0.39299 -1.172103,-0.46037 -1.815671,-0.4987 -0.328801,-0.01 -0.286309,-0.0104 -0.622408,-0.0116 -0.08849,-3.2e-4 -0.353952,5.8e-4 -0.265463,6.8e-4 2.705265,0.003 2.199599,0.75101 2.358441,-0.3809 0.0408,0.0199 0.07899,0.0465 0.1224,0.0599 0.09291,0.0286 0.359901,0.0593 0.441836,0.0781 0.302403,0.0692 0.564235,0.20126 0.835492,0.34657 0.523275,0.29002 1.056872,0.55514 1.609865,0.78422 0.577876,0.24241 1.028341,0.68223 1.524104,1.04964 0.08398,0.0365 0.161919,0.0928 0.251948,0.10954 0.07227,0.0135 0.29293,-0.019 0.219468,-0.0217 -0.755983,-0.0281 -1.516611,0.0256 -2.268863,-0.0546 -0.08102,-0.009 0.129531,-0.10223 0.177375,-0.16819 0.128488,-0.17711 0.181864,-0.38695 0.250816,-0.58959 0.181089,-0.70235 0.435416,-1.36922 0.745446,-2.0234 0.320822,-0.64967 0.750708,-1.23493 1.127779,-1.85123 0.07347,-0.0994 0.537922,-0.977 0.630492,-0.97218 2.689474,0.13994 2.442985,-0.58677 2.665917,0.57807 0.08283,0.83223 0.07796,1.67471 0.01689,2.5082 -0.142085,0.94755 -0.428318,1.86337 -0.596798,2.80673 -0.104777,0.67672 -0.39941,1.25123 -0.903828,1.70974 -1.443394,0.86201 -3.05565,0.67602 -3.31424,-0.78377 -0.05718,-0.82259 0.400097,-1.58151 0.709922,-2.31954 0.340807,-0.86805 0.722686,-1.71635 0.952815,-2.62242 0.162199,-0.73167 0.174975,-1.48361 0.183656,-2.22958 0.03375,-0.66749 -0.123101,-1.31699 -0.330241,-1.94586 -0.138027,-0.25616 -0.222416,-0.61798 -0.45774,-0.81385 -0.04522,-0.0376 -0.108577,-0.0584 -0.167363,-0.056 -0.05338,0.002 -0.198323,0.0662 -0.144947,0.0684 0.787083,0.0321 1.575409,0.0148 2.363114,0.0222 -0.28825,0.49616 -0.318475,1.13582 -0.407282,1.69876 -0.06755,0.72968 -0.138874,1.45473 -0.250044,2.17933 -0.15761,0.68131 -0.444495,1.32777 -0.747877,1.95552 -0.736008,1.15669 -1.671348,0.71086 -3.259858,0.53225 -0.08416,-0.009 -0.223216,-0.53546 -0.228577,-0.55292 -0.254141,-0.58479 -0.12563,-1.36294 -0.597916,-1.83362 -0.841232,-0.0868 -1.381731,-0.13814 2.1206,0.0405 0.07175,0.004 -0.143416,0.0214 -0.210069,0.0482 -0.235457,0.0947 -0.401575,0.29729 -0.561688,0.4826 -0.264393,0.41387 -0.452081,0.93727 -0.06012,1.32238 0.461086,0.23002 1.014853,0.21168 1.520186,0.22188 0.576457,0.063 1.165341,0.35355 0.818473,1.00184 -0.417946,0.3648 -1.014942,0.35193 -1.54081,0.37915 -1.152913,0.0347 -2.308393,0.004 -3.460286,-0.0263 -0.323912,-0.009 -0.616788,-0.0897 -0.901967,-0.23453 -0.239249,-0.65336 0.795162,-0.57686 1.183717,-0.59993 1.507612,-0.0514 3.017917,-0.0293 4.525735,-0.0294 -4.56047,-0.11915 -2.031352,0.28843 -1.405347,-0.28764 0.155172,-0.1428 0.181101,-0.27082 0.259796,-0.46195 0.191775,-0.67416 0.175337,-1.38334 0.181378,-2.07796 -0.0024,-0.68692 -0.008,-1.37383 -0.0127,-2.06074 -0.0057,-0.28879 0.0039,-0.57768 -0.0074,-0.86639 -0.0013,-0.0331 -0.04067,-0.1 -0.0075,-0.0992 2.619938,0.0631 2.616315,-0.66085 2.474812,0.44431 -0.06075,0.81005 -0.282521,1.58812 -0.468603,2.3746 -0.173173,0.65432 -0.374884,1.30308 -0.679495,1.90902 -0.570381,0.89166 -2.030797,0.20487 -2.873995,0.0962 -0.178017,-0.023 -0.280225,-0.70754 -0.307053,-0.82008 -0.14098,-0.70769 -0.147276,-1.43165 -0.154115,-2.15036 -0.03082,-0.76402 0.01772,-1.31715 0.66649,-1.78472 0.549332,-0.25401 1.162102,-0.2995 1.732838,-0.49754 0.252622,-0.0923 0.426885,-0.25286 0.598847,-0.44986 0,0 2.49325,0.16488 2.49325,0.16488 l 0,0 c -0.170369,0.24265 -0.342079,0.45145 -0.617937,0.5834 -0.5545,0.23807 -1.14009,0.31958 -1.723003,0.45594 -0.690962,0.32984 -0.688608,0.81164 -0.667004,1.52468 0.01152,0.69891 0.01616,1.40413 0.161007,2.0911 0.04842,0.17544 0.08138,0.36199 0.187055,0.51644 0.03189,0.0466 0.18089,0.11151 0.124509,0.11494 -0.780565,0.0475 -1.565261,-0.0256 -2.345934,0.0201 -0.05579,0.003 0.07098,0.10712 0.126807,0.10967 0.04738,0.002 0.06801,-0.0661 0.102019,-0.0992 0.335356,-0.56872 0.509164,-1.21372 0.695943,-1.84248 0.18553,-0.77594 0.409707,-1.54266 0.452234,-2.34453 0.10195,-1.08218 -0.05207,-0.35499 2.53612,-0.41746 0.03324,-8e-4 -0.0056,0.0663 -0.0067,0.0995 -0.0072,0.2182 -0.0033,0.32667 -0.0026,0.55756 3.38e-4,0.10276 2.51e-4,0.20552 3.76e-4,0.30828 0.0018,0.68789 0.0088,1.37577 0.0063,2.06367 -0.0039,0.72374 0.0092,1.46047 -0.175127,2.16583 -0.06828,0.19738 -0.131735,0.43375 -0.262908,0.60392 -0.761365,0.98772 -3.047799,-0.0948 -3.541981,0.4455 4.380141,-7.9e-4 1.407221,-0.0122 0.39297,0.017 -0.172934,0.007 -0.995078,0.10287 -1.122315,0.0424 -0.187808,-0.0892 -0.07485,-0.10331 -0.0342,-0.11185 0.224726,0.0743 0.215503,0.08 0.495489,0.11965 0.126334,0.0179 0.508344,0.0344 0.380823,0.0387 -3.914481,0.13289 -2.328296,-10e-4 -1.464715,0.0146 0.502788,-0.0144 1.021059,-0.014 1.502921,-0.17446 0.476627,-0.2168 -0.704299,-0.53764 -0.778944,-0.44497 -0.541386,-0.0262 -1.147298,-0.029 -1.554708,-0.43689 -0.346392,-0.54108 -0.237647,-1.11353 0.06704,-1.65712 0.799483,-1.07159 2.273093,-1.66891 3.636845,-0.56983 0.373335,0.57768 0.35303,1.28284 0.596024,1.91503 0.03269,0.0773 0.05132,0.16229 0.09806,0.23205 0.02982,0.0445 0.178489,0.0972 0.125043,0.10099 -6.157064,0.43291 -2.342703,0.30674 -1.907942,-0.088 0.07917,-0.0719 0.133507,-0.16707 0.20026,-0.25061 0.293264,-0.60669 0.564975,-1.22996 0.736235,-1.88266 0.116601,-0.72414 0.200192,-1.44778 0.253679,-2.17958 0.09982,-0.62682 0.156644,-1.28143 0.396346,-1.87084 2.374312,-0.18285 2.6791,-0.85226 3.393253,0.91291 0.207451,0.65751 0.366256,1.33206 0.331125,2.02726 -0.01458,0.76472 -0.027,1.53653 -0.191242,2.28682 -0.228399,0.91946 -0.623587,1.77609 -0.962024,2.65826 -0.281354,0.69202 -0.729443,1.40771 -0.68554,2.17256 0.0499,0.20991 0.105482,0.41771 0.30061,0.54532 0.0459,0.03 0.209421,0.0533 0.154651,0.0562 -2.706776,0.1422 -3.040169,0.24446 -2.123707,0.007 0.529271,-0.35058 0.795112,-0.91576 0.908798,-1.529 0.174127,-0.9338 0.457489,-1.84146 0.604305,-2.77953 0.05613,-0.80912 0.05908,-1.62899 -0.03622,-2.43527 -0.275261,-1.02165 -0.158554,-0.26177 2.325623,-0.37428 0.03801,-0.002 -0.08143,-0.003 -0.112525,0.0191 -0.06132,0.0433 -0.10927,0.10456 -0.151134,0.16684 -0.142486,0.21195 -0.222708,0.46204 -0.385943,0.66188 -0.365851,0.61421 -0.786578,1.19464 -1.121369,1.82729 -0.309745,0.64358 -0.574966,1.29341 -0.743968,1.99035 -0.0378,0.12283 -0.29988,0.94978 -0.431091,0.96905 -1.277871,0.18763 -2.206579,0.50285 -3.167691,-0.0932 -0.478955,-0.37296 -0.947743,-0.76708 -1.521586,-0.98912 -0.546694,-0.24528 -1.078699,-0.51596 -1.607774,-0.79685 -0.446627,-0.19956 -0.926357,-0.33183 -1.413533,-0.37819 -0.0187,-0.12785 -0.05086,-0.25445 -0.0561,-0.38356 -0.0021,-0.0524 2.669384,-0.0312 3.54011,0.022 0.668656,0.0681 1.303765,0.20751 1.827581,0.66091 0.615621,0.59508 1.023748,1.33993 1.531158,2.0231 0.48801,0.58645 0.988118,1.17453 1.573159,1.66663 0.225994,0.14494 0.351251,0.24953 0.605946,0.3275 0.09456,0.029 0.390604,0.0482 0.291847,0.0533 -0.72425,0.0378 -1.450163,0.03 -2.175245,0.0451 0.09253,-0.017 0.193074,-0.01 0.277598,-0.0509 0.0967,-0.0472 0.165668,-0.13744 0.248501,-0.20617 0.511191,-0.62453 0.972727,-1.28888 1.241592,-2.05775 0.223741,-0.63453 0.384814,-1.28871 0.444191,-1.96043 0.06617,-0.62891 0.01761,-1.26339 0.03415,-1.89489 -0.0015,-0.64415 0.0052,-1.28887 -0.03173,-1.93228 -0.05461,-0.80195 -0.153333,-1.60122 -0.37765,-2.3758 -0.206499,-0.73845 -0.42972,-1.47121 -0.629547,-2.21115 -0.133189,-0.46014 -0.249217,-0.94409 -0.772531,-1.08353 5.650947,-0.1034 2.131728,-0.22081 1.655176,0.0822 -0.352033,0.22383 -0.570342,0.62878 -0.873762,0.90385 -0.630546,0.73553 -1.194061,1.51855 -1.736763,2.32079 -0.707698,1.04343 -1.430223,2.0767 -2.117778,3.13352 -0.626399,0.96776 -1.152683,1.99215 -1.626593,3.04288 0,0 -2.496262,-0.0896 -2.496262,-0.0896 z"
       inkscape:connector-curvature="0" />
    <path
       style="opacity:1;fill:#ffffff;fill-opacity:0.74509804;stroke:#ffffff;stroke-width:3.5;stroke-miterlimit:4;stroke-dasharray:none;stroke-opacity:1"
       id="path5852"
       d="m 108.42883,352.41753 c -0.71437,-0.92751 -1.53879,-1.77252 -2.39636,-2.56819 -0.71491,-0.55837 -1.31006,-1.21673 -1.86259,-1.9296 -0.48956,-0.54486 -0.79526,-1.20574 -1.11576,-1.85491 -0.39332,-0.6975 -0.78987,-1.39945 -1.11142,-2.13363 -0.32801,-0.73944 -0.32093,-1.27073 -0.023,-2.00959 0.40742,-0.78382 1.17622,-1.18463 1.92604,-1.58142 0.85291,-0.37959 1.76368,-0.58934 2.6821,-0.73293 2.03239,-0.25285 3.10476,-0.14397 4.70028,0.66345 0.73187,0.43756 1.46652,0.85975 2.22869,1.24106 0.81685,0.42182 1.25235,1.16153 1.71114,1.918 0.47557,0.69952 0.92238,1.41683 1.39904,2.11571 0.42402,0.67 0.71439,1.39603 0.76002,2.18928 -0.0601,0.70659 -0.24983,1.38075 -0.5867,2.00287 -0.46426,0.66839 -1.03831,1.25091 -1.73479,1.67293 -0.58503,0.30109 -1.23947,0.31785 -1.87901,0.37889 -0.62356,0.0976 -1.25047,0.16082 -1.88033,0.1975 -0.84656,0.0542 -2.93503,0.54254 -3.34609,-0.24323 -0.0807,-0.15433 -0.0796,-0.29082 -0.0998,-0.46054 -0.0211,-0.58846 0.0147,-1.1773 0.0295,-1.76564 0.0294,-0.68246 0.0257,-1.35969 -0.0482,-2.0387 -0.0404,-0.72519 -0.17814,-1.39563 -0.53219,-2.03154 -0.45462,-0.52959 -1.10116,-0.83393 -1.7148,-1.14367 -0.57751,-0.32128 -1.13383,-0.68611 -1.66819,-1.07533 -0.84468,-0.58932 -1.66032,-0.51984 2.22046,-0.15077 0.076,0.007 0.0631,0.13926 0.10096,0.20554 0.11602,0.20313 0.20409,0.30773 0.34611,0.49752 0.49831,0.54788 0.83054,1.21175 1.23995,1.82279 0.43173,0.65744 0.92645,1.2667 1.39825,1.89445 0.11782,0.1751 0.28672,0.43726 0.4257,0.60523 0.0491,0.0593 0.10281,0.1152 0.1605,0.16622 0.0181,0.016 0.0888,0.0326 0.0646,0.0329 -2.61093,0.0295 -2.12319,0.72396 -2.66918,-0.17904 -0.40346,-0.53449 -0.83007,-1.05287 -1.25728,-1.56916 -0.58048,-0.59292 -1.19835,-1.14776 -1.79935,-1.71971 -0.63973,-0.47234 -1.0834,-0.90407 -1.37261,-1.65153 -0.23546,-0.71542 -0.0381,-1.12644 0.51144,-1.59509 0.556,-0.38769 1.21046,-0.48688 1.86891,-0.54549 0.48535,0.053 0.92866,-0.31017 1.39901,-0.31676 0.87937,-0.0123 1.75889,0.009 2.63833,0.0133 0.0282,0.0534 0.0828,0.0999 0.0846,0.16032 0.0139,0.47215 -0.78614,0.90248 -1.11323,1.14377 -0.21775,0.14384 -1.30967,0.91554 -1.50174,0.89743 -0.79796,-0.0752 -1.58583,-0.23389 -2.37874,-0.35083 0.93515,-0.44523 1.97473,-0.63877 2.96597,-0.93141 0.44673,-0.0437 0.84518,-0.34316 1.27192,-0.44018 0.0904,-0.0206 -0.0588,0.17634 -0.0984,0.26022 4.61802,-0.13995 1.56094,0.0904 0.4888,0.14305 -0.76405,0.034 -1.52898,0.0373 -2.29365,0.041 -0.50532,-0.16055 -2.95436,0.44518 -3.73978,-0.47653 -0.1711,-0.20079 -0.16628,-0.28734 -0.22698,-0.52562 0.0828,-0.42603 0.40798,-0.50904 0.79956,-0.50423 2.7649,0.034 1.88681,-0.10576 3.13333,0.11973 0.67745,0.18443 1.32232,0.4816 1.94249,0.80795 0.29839,0.12148 1.06998,0.5124 1.36377,0.41911 -0.8445,0.0274 -1.68889,0.1055 -2.53352,0.0822 -0.001,-3e-5 -0.12294,-0.26789 -0.18485,-0.37405 -0.18593,-0.31882 -0.41799,-0.60709 -0.64551,-0.89626 -0.88192,-1.08885 -0.0812,-0.65644 2.28157,-0.53631 0.079,0.004 0.10884,0.11473 0.16415,0.17123 0.073,0.0745 0.14716,0.14792 0.22073,0.22188 0.58829,0.59074 1.17546,1.18258 1.76492,1.77216 0.62737,0.58452 1.23293,1.1907 1.83263,1.80409 0.54536,0.57826 1.19121,1.04734 1.74517,1.61648 0.18126,0.14802 0.33999,0.47747 0.59516,0.53474 0.0378,0.008 0.15141,-0.0274 0.11271,-0.0279 -2.63595,-0.0388 -2.13452,0.7388 -2.65294,-0.21128 -0.50746,-0.71301 -1.14463,-1.32591 -1.75849,-1.94653 -0.5438,-0.42941 -1.08503,-1.30465 -1.72147,-1.56395 0.83928,0.002 1.68023,-0.0472 2.51785,0.006 0.0624,0.004 0.0625,0.10844 0.0986,0.15942 0.0596,0.0842 0.126,0.16333 0.18832,0.24551 0.26831,0.35384 0.54161,0.69869 0.82702,1.03905 0.64933,0.81315 1.24207,1.6732 1.81561,2.54129 0.69625,0.84865 1.61557,0.59912 -2.29463,0.42025 -0.15144,-0.007 -0.2401,-0.18623 -0.36963,-0.26499 -0.50976,-0.30994 -1.01014,-0.52634 -1.55248,-0.78361 -1.8313,-0.77703 -3.69491,-1.46836 -5.52237,-2.25505 -0.88858,-0.34794 -1.65059,-0.84744 -2.33869,-1.49873 -0.14068,-0.027 -0.20855,-0.28657 -0.36748,-0.31878 -0.0228,-0.005 -0.0607,0.0591 -0.0374,0.0589 0.84905,-0.007 1.69815,-0.12622 2.54598,-0.0801 0.0867,0.005 0.0845,0.15186 0.13033,0.22565 0.0629,0.1013 0.13048,0.19961 0.19572,0.29942 0.49171,0.72806 0.93463,1.49527 1.56731,2.11163 0.56737,0.34299 1.19072,0.61407 1.82647,0.80588 0.15032,0.035 0.45813,0.11313 0.61565,0.12485 0.0963,0.007 0.38627,-0.006 0.28969,-0.008 -0.73939,-0.0137 -1.4813,0.0322 -2.21839,-0.0278 -0.0963,-0.008 0.18446,-0.0692 0.2582,-0.13162 0.0945,-0.08 0.15746,-0.19116 0.23619,-0.28674 0.28066,-0.50753 0.58164,-1.21249 0.39084,-1.80811 -0.0258,-0.0805 -0.0932,-0.14109 -0.13983,-0.21163 -0.0583,-0.0234 -0.1122,-0.0671 -0.17497,-0.0703 -0.058,-0.003 -0.22421,0.051 -0.16613,0.0528 0.78912,0.0246 1.57958,-0.0154 2.36847,0.0159 0.0295,0.001 -0.0396,0.0473 -0.0451,0.0763 -0.0244,0.1292 -0.005,0.39926 -6.7e-4,0.51625 0.01,0.75591 0.28796,1.44063 0.6592,2.08525 0.0776,0.12765 0.27154,0.48713 0.41637,0.59292 0.0465,0.034 0.22764,0.0318 0.17005,0.0308 -3.56544,-0.0613 -2.30574,0.66571 -2.29498,-0.39222 -0.12495,-0.71606 -0.49688,-1.36592 -0.88576,-1.9709 -0.0694,-0.0699 -0.12693,-0.15401 -0.20823,-0.20958 -0.0552,-0.0378 -0.12701,-0.042 -0.19052,-0.063 0.77613,0.0234 1.55341,0.022 2.32841,0.0702 0.0447,0.003 -0.0883,0.0323 -0.11625,0.0673 -0.0943,0.11786 -0.12721,0.33994 -0.15881,0.47157 -0.10415,0.65546 -0.10077,1.32173 -0.10162,1.98361 -6e-5,0.65079 0.008,1.30155 0.005,1.95232 0.003,0.74148 -0.007,1.48296 0.005,2.22439 0.03,1.07044 0.22653,0.57437 -2.49794,0.0735 -0.0159,-0.003 0.005,-0.79537 0.005,-0.83537 -0.008,-0.6836 -0.0243,-1.35938 0.10544,-2.03269 0.22311,-0.69855 0.72404,-1.05498 1.4032,-1.23751 0.41176,-0.0779 0.83355,-0.1115 1.25269,-0.1073 2.84275,0.0285 1.90457,-0.25406 3.05956,0.13273 0.55035,0.40854 0.66368,1.08495 0.59,1.72624 -0.15372,0.9004 -0.69977,1.67643 -1.25827,2.37677 -1.57218,1.63593 -1.51214,1.19472 -4.20133,0.99301 -0.008,-0.78922 0.63704,-1.36896 1.16654,-1.87607 0.67631,-0.55609 1.3714,-1.08748 2.03416,-1.66023 0.57308,-0.43559 0.95012,-1.02101 1.3205,-1.6233 0.16143,-0.28083 0.37398,-0.5275 0.54867,-0.7993 0.54021,-0.84052 -1.56095,-0.31609 2.41802,0.0507 -0.56064,0.17063 -1.00437,0.55599 -1.42133,0.95054 -0.46401,0.43154 -0.614,0.99209 -0.69715,1.59725 -0.0699,0.6491 -0.0266,1.30244 -0.0817,1.95185 -0.16025,1.25845 0.0325,0.71453 -2.42926,0.34592 -0.0724,-0.0109 0.13114,-0.0655 0.19467,-0.10197 0.0865,-0.0497 0.17003,-0.10419 0.25505,-0.15629 0.57341,-0.48526 1.15045,-0.9749 1.68662,-1.50227 0.0357,-0.003 0.58366,-0.61363 0.45084,-0.67752 -0.0382,-0.0184 -0.0836,0.0183 -0.12594,0.0169 -0.069,-0.002 -0.13679,-0.0184 -0.20519,-0.0276 -0.9172,-0.10142 -0.86724,-0.0874 1.937,-0.006 0.0953,0.003 -0.19023,0.0165 -0.28412,0.0332 -0.28418,0.0503 -0.56509,0.14324 -0.84436,0.21519 -0.62558,0.1571 -1.24244,0.33211 -1.84813,0.55383 -0.10422,0.0422 -0.2111,0.0784 -0.31266,0.12662 -0.20676,0.0982 -0.22597,0.12112 -0.37838,0.25604 -0.59257,0.5246 -1.57837,-0.12053 -2.36597,-0.19825 -0.0508,-0.005 0.0995,-0.023 0.14929,-0.0344 0.5432,-0.51976 0.77928,-1.28066 0.96593,-1.98961 0.17058,-0.76672 0.19046,-1.55441 0.20561,-2.33637 -6.7e-4,-0.53893 -0.0296,-1.23031 0.55585,-1.45711 0.88628,0.053 1.77862,0.0428 2.65883,0.15914 0.0867,0.0115 0.1033,0.14113 0.15367,0.21261 0.26731,0.37939 0.52165,0.75408 0.73813,1.1652 0.35689,0.56985 0.50747,1.21135 0.59853,1.86849 0.062,0.6383 0.0591,1.28018 0.0592,1.92072 0.008,0.73869 0.0296,1.45842 -0.40536,2.08718 -1.10966,0.92129 -2.77909,0.35221 -4.08945,0.0735 -0.30515,-0.0624 -0.61381,-0.10171 -0.92409,-0.12648 -0.10724,-0.009 -0.42961,-0.0212 -0.32203,-0.0214 2.41937,-0.005 2.8324,-0.0768 1.84617,0.0591 0,0 -2.46881,-0.34138 -2.46881,-0.34138 l 0,0 c 1.39732,-0.36282 2.92551,-0.16149 4.33762,0.0933 0.20293,0.0452 0.40449,0.0971 0.60872,0.13603 0.0879,0.0168 0.35477,0.0369 0.26536,0.0406 -4.42512,0.1828 -2.45281,0.24656 -1.74234,-0.0858 0.0612,-0.0592 0.1381,-0.10556 0.18351,-0.17754 0.31725,-0.50287 0.18692,-1.18061 0.21973,-1.73697 -2.8e-4,-0.62899 0.004,-1.25994 -0.061,-1.88634 -0.0881,-0.63057 -0.24861,-1.23457 -0.59138,-1.78002 -0.21277,-0.38569 -0.44786,-0.78016 -0.7469,-1.10724 -0.58327,-0.63795 -1.91775,-0.0992 2.15859,-0.17017 -0.0577,-0.0199 -0.11226,-0.0558 -0.17321,-0.0597 -0.45119,-0.0292 -0.35672,0.89871 -0.3725,1.13906 -0.0148,0.80148 -0.0496,1.6077 -0.21229,2.3949 -0.19731,0.76483 -0.45701,1.53626 -0.95224,2.16421 -1.02514,1.19289 -4.17663,0.0933 -2.05658,-0.69092 0.6089,-0.22156 1.21446,-0.42997 1.84565,-0.58134 1.42324,-0.33512 2.46507,-0.77493 4.14617,-0.227 0.70934,0.34856 0.24848,0.78727 -0.12078,1.19725 -0.53199,0.54905 -1.14406,1.01352 -1.68615,1.55295 -1.01601,0.73023 -0.97001,0.36104 -3.09027,0.2184 -0.0381,-0.003 0.0172,-0.0818 0.0575,-0.29183 0.0178,-0.0927 0.0288,-0.18662 0.0432,-0.27993 0.054,-0.65311 0.007,-1.3105 0.0793,-1.96324 0.0802,-0.65211 0.22965,-1.27955 0.70547,-1.76454 0.42758,-0.42284 0.86874,-0.81851 1.41744,-1.0802 3.11228,0.15522 3.08357,-0.39269 2.00392,1.21514 -0.38268,0.61934 -0.73879,1.24804 -1.33235,1.69803 -0.65909,0.57515 -1.34407,1.11802 -2.03853,1.6498 -0.43731,0.40502 -0.99381,0.86134 -1.13479,1.47107 -0.79029,0.008 -1.58078,0.005 -2.37085,0.0254 -0.0734,0.002 0.14596,0.0425 0.21828,0.0298 0.10982,-0.0194 0.2124,-0.0711 0.31107,-0.12305 0.41836,-0.22029 0.73883,-0.56913 1.07594,-0.8914 0.54758,-0.64968 1.07634,-1.38539 1.23449,-2.23662 0.0658,-0.53288 -0.02,-1.13736 -0.57298,-1.37073 -0.97337,-0.1902 -0.35795,-0.0511 1.8748,-0.0729 0.10782,-0.001 -0.21565,6.1e-4 -0.32346,0.002 -0.30742,0.005 -0.61523,0.0145 -0.92034,0.0556 -0.62377,0.1071 -1.14146,0.3145 -1.38733,0.94983 -0.13413,0.65565 -0.10113,1.31746 -0.0987,1.984 2.6e-4,0.04 0.0213,0.83245 0.005,0.83536 -2.72455,0.50097 -2.52765,0.99702 -2.49802,-0.0734 0.0108,-0.74123 8.5e-4,-1.48251 6e-4,-2.22378 -0.006,-0.65123 -0.006,-1.30254 -0.008,-1.95379 0.003,-0.6793 4.4e-4,-1.36177 0.0996,-2.03555 0.0175,-0.091 0.12859,-0.81737 0.28275,-0.83047 1.81458,-0.15412 2.26843,-0.56301 3.03771,0.40748 0.39937,0.65187 0.7773,1.34426 0.89732,2.10815 0.005,0.23215 0.033,0.58464 -0.0654,0.59666 -2.22269,0.27181 -2.43155,0.6249 -3.20027,-0.69963 -0.37164,-0.68447 -0.65419,-1.41092 -0.67271,-2.20053 -0.003,-0.0663 -0.0722,-0.84329 0.0417,-0.86006 1.08439,-0.15967 2.23046,-0.65509 2.96086,0.13611 0.0457,0.10325 0.10957,0.20027 0.13725,0.30976 0.1723,0.6815 -0.10523,1.38898 -0.40159,1.9862 -0.0473,0.0744 -0.33365,0.59486 -0.49811,0.61162 -1.2667,0.12911 -2.44377,0.22788 -3.63078,-0.12512 -0.64446,-0.22574 -1.30137,-0.49119 -1.83365,-0.92619 -0.6063,-0.65693 -1.06673,-1.42542 -1.57226,-2.15964 -0.0684,-0.10545 -0.14084,-0.20842 -0.20532,-0.31633 -0.0533,-0.0892 -0.24804,-0.24739 -0.14773,-0.2745 2.43733,-0.65865 1.9489,-0.82998 2.84162,0.058 0.68066,0.61596 1.45057,1.06934 2.30146,1.41931 1.81107,0.80197 3.66768,1.48741 5.48839,2.26652 0.64122,0.30349 1.02816,0.46182 1.61329,0.82073 0.14252,0.0874 0.56947,0.24252 0.40918,0.2901 -2.19664,0.65211 -2.00853,0.86588 -2.68093,-0.066 -0.56717,-0.86212 -1.14901,-1.71955 -1.80992,-2.51313 -0.35574,-0.42406 -0.76632,-0.85828 -1.04647,-1.33901 -0.0454,-0.078 -0.19716,-0.22743 -0.10923,-0.24768 0.81192,-0.18698 1.6544,-0.19911 2.4816,-0.29866 0.6309,0.46764 1.11705,1.10708 1.69444,1.63503 0.62991,0.64041 1.29832,1.26859 1.79002,2.02462 0.45314,1.00717 0.25279,0.33566 -2.33156,0.66796 -0.11451,0.0147 -0.41352,-0.35241 -0.46307,-0.40446 -0.0789,-0.0828 -0.15633,-0.16701 -0.23449,-0.25051 -0.56518,-0.55571 -1.20026,-1.03655 -1.73979,-1.61918 -0.5981,-0.61334 -1.21159,-1.20959 -1.83037,-1.80161 -0.58947,-0.59226 -1.179,-1.18454 -1.77743,-1.76778 -0.0763,-0.0723 -0.15093,-0.14633 -0.2289,-0.21679 -0.0571,-0.0516 -0.25253,-0.13888 -0.17625,-0.14931 2.45517,-0.33594 2.01037,-0.7376 2.69955,0.1466 0.28764,0.37313 0.58458,0.7471 0.78364,1.17747 0.0292,0.0631 0.14602,0.17719 0.0784,0.19331 -0.80617,0.19205 -1.63865,0.24905 -2.45798,0.37357 -0.46289,-0.15096 -0.92699,-0.3062 -1.3571,-0.53776 -0.61754,-0.30369 -1.24824,-0.60344 -1.92895,-0.73302 -1.07923,-0.16523 -0.3672,-0.0365 1.79345,-0.0808 0.068,-10e-4 -0.74673,-0.0611 -0.76343,0.0479 0.0573,0.17651 0.0502,0.22811 0.20877,0.36265 0.68237,0.57877 3.11977,0.2224 -1.19872,0.32025 0.7653,-10e-4 1.5308,-0.003 2.29571,-0.0303 1.48567,-0.0602 2.95238,-0.2766 4.44863,-0.14581 0.0479,0.0816 0.11731,0.15398 0.14368,0.24487 0.085,0.29306 -1.19184,0.55922 -1.35665,0.62919 -0.96482,0.29805 -1.95121,0.52189 -2.90943,0.84145 -5.27943,-0.34622 -3.18407,0.11436 -2.36814,-0.24695 0.45348,-0.20082 0.86583,-0.47879 1.27545,-0.75461 0.28162,-0.21089 0.57163,-0.41216 0.85045,-0.62661 0.0654,-0.0503 0.20927,-0.17376 0.22895,-0.0937 0.005,0.0195 -0.0396,0.007 -0.0593,0.0107 0.77271,-0.008 1.54543,-0.0162 2.31815,-0.0243 -0.0793,0.007 -0.15978,0.006 -0.23794,0.0213 -0.39768,0.0776 -0.76252,0.29158 -1.17271,0.31489 -0.63732,0.0358 -1.28082,0.0866 -1.85101,0.40333 -0.52863,0.34747 -0.7228,0.63979 -0.50146,1.26986 0.28193,0.66851 0.79457,1.09791 1.35182,1.5461 0.60912,0.57588 1.24008,1.13125 1.80717,1.74952 0.43519,0.52932 0.88877,1.04792 1.27754,1.6123 0.49376,0.93618 0.23132,0.27609 -2.33722,0.52134 -0.0279,0.003 -0.0329,-0.0455 -0.0502,-0.0675 -0.2517,-0.32161 -0.0634,-0.0637 -0.34369,-0.46475 -0.0758,-0.10848 -0.15152,-0.21703 -0.22728,-0.32555 -0.4784,-0.62803 -0.96487,-1.24815 -1.39759,-1.90968 -0.40404,-0.61261 -0.75748,-1.25972 -1.24743,-1.81164 -0.0327,-0.0461 -0.56029,-0.78948 -0.4655,-0.81411 2.15752,-0.56054 1.87064,-0.7847 2.76327,-0.13157 0.53603,0.37361 1.08127,0.73943 1.66138,1.04148 0.63847,0.34445 1.31182,0.67064 1.72673,1.29245 0.34257,0.67025 0.49139,1.37556 0.53181,2.12662 0.0738,0.68988 0.0878,1.37828 0.0553,2.07179 -0.015,0.57405 -0.0467,1.14941 -0.02,1.7233 0.0284,0.15821 0.0337,0.30202 0.21085,0.35685 0.0626,0.0194 0.25915,0.0314 0.19367,0.0333 -2.59266,0.0727 -2.90947,0.14457 -1.9243,-0.0279 0.62941,-0.0272 1.25856,-0.0706 1.87986,-0.18016 0.62323,-0.0904 1.27009,-0.0463 1.86757,-0.28319 0.70429,-0.35531 1.25687,-0.90755 1.72952,-1.535 0.33211,-0.57486 0.50771,-1.20145 0.57884,-1.86192 -0.0437,-0.74767 -0.33897,-1.43138 -0.74494,-2.0562 -0.47382,-0.70423 -0.93621,-1.41589 -1.39847,-2.1275 -0.4473,-0.72807 -0.90125,-1.40362 -1.70332,-1.78003 -0.75912,-0.38277 -1.47814,-0.83154 -2.22496,-1.2372 -0.37466,-0.17085 -0.75657,-0.34859 -1.15365,-0.46309 -0.1225,-0.0353 -0.50045,-0.0749 -0.37325,-0.0835 0.90866,-0.0616 3.02681,-0.0156 1.74647,-0.0408 -0.9147,0.11862 -1.81568,0.31231 -2.67692,0.65069 -0.71249,0.3533 -1.46954,0.70937 -1.90207,1.40918 -0.29712,0.67498 -0.28912,1.12431 0.0187,1.8061 0.33187,0.7274 0.71692,1.43028 1.11307,2.12441 0.31276,0.63851 0.6376,1.26888 1.11481,1.80456 0.54244,0.6998 1.146,1.32958 1.83251,1.89283 0.86106,0.81934 1.68526,1.68245 2.43119,2.6086 0,0 -2.48802,0.16033 -2.48802,0.16033 z"
       inkscape:connector-curvature="0" />
    <path
       style="opacity:1;fill:#ffffff;fill-opacity:0.74509804;stroke:#ffffff;stroke-width:3.5;stroke-miterlimit:4;stroke-dasharray:none;stroke-opacity:1"
       id="path5854"
       d="m 273.47847,341.98888 c 1.30426,-0.52629 2.67396,-0.86148 4.00918,-1.29908 1.01837,-0.38278 2.06622,-0.67367 3.11267,-0.96745 0.94527,-0.22633 1.81933,-0.66457 2.70516,-1.05299 1.27915,-0.59257 2.2416,-0.41788 3.81842,-0.32009 0.0785,0.005 0.14201,0.078 0.18921,0.14086 0.054,0.0719 0.069,0.16605 0.10346,0.24908 0.0642,0.54998 -0.17684,1.05743 -0.34675,1.56575 -0.51806,1.54994 0.20146,-0.50744 -0.38687,1.15606 -0.30161,0.94184 -0.70976,1.83856 -1.13134,2.73018 -0.3007,0.69721 -0.75437,1.30515 -1.20118,1.91273 -0.47556,0.6263 -0.93256,1.26291 -1.48164,1.82758 -0.49493,0.43724 -0.92729,0.93366 -1.36361,1.42734 -0.0635,0.0794 -0.12698,0.15871 -0.19047,0.23806 0,0 -2.4867,-0.165 -2.4867,-0.165 l 0,0 c 0.0643,-0.0844 0.12862,-0.16887 0.19292,-0.2533 0.43972,-0.49654 0.86126,-1.01043 1.36823,-1.44187 0.55814,-0.54578 1.01672,-1.16566 1.48215,-1.79079 0.44072,-0.59362 0.89451,-1.18562 1.19984,-1.86378 0.41496,-0.8885 0.86284,-1.76315 1.15543,-2.70434 0.52357,-1.49398 -0.0858,0.27879 0.37206,-1.15731 0.1393,-0.43697 0.3679,-0.8851 0.3173,-1.35549 -0.48878,-0.56435 -3.0186,-0.14583 1.95817,-0.19333 0.10548,-10e-4 -0.21195,-0.002 -0.3161,0.0144 -0.3262,0.0522 -0.48722,0.14125 -0.79584,0.26834 -0.88764,0.39423 -1.76625,0.8427 -2.70842,1.08763 -1.05148,0.29809 -2.11309,0.56441 -3.13575,0.95437 -1.3182,0.42935 -2.67079,0.76241 -3.95565,1.28337 0,0 -2.48388,-0.29092 -2.48388,-0.29092 z"
       inkscape:connector-curvature="0" />
    <path
       style="opacity:1;fill:#ffffff;fill-opacity:0.74509804;stroke:#ffffff;stroke-width:3.5;stroke-miterlimit:4;stroke-dasharray:none;stroke-opacity:1"
       id="path5856"
       d="m 283.58963,341.74445 c -0.83474,0.49969 -1.66005,1.02587 -2.53324,1.45674 -0.7222,0.31654 -1.1898,0.4983 -1.61107,1.18087 -0.13656,0.27551 -0.31563,0.51809 -0.51176,0.75247 0,0 -2.48926,-0.18388 -2.48926,-0.18388 l 0,0 c 0.20792,-0.20943 0.38874,-0.42874 0.51211,-0.70135 0.0772,-0.13669 0.23574,-0.43277 0.3386,-0.55194 0.33528,-0.38844 0.85387,-0.55999 1.29975,-0.77609 0.87966,-0.39109 1.69587,-0.92398 2.51263,-1.42894 0,0 2.48224,0.25212 2.48224,0.25212 z"
       inkscape:connector-curvature="0" />
    <path
       style="opacity:1;fill:#ffffff;fill-opacity:0.74509804;stroke:#ffffff;stroke-width:3.5;stroke-miterlimit:4;stroke-dasharray:none;stroke-opacity:1"
       id="path5858"
       d="m 312.50564,321.56382 c -0.43529,0.82963 -0.96643,1.6003 -1.5447,2.33534 -0.51724,0.68568 -1.24551,1.14771 -1.94574,1.62301 -0.56812,0.37493 -1.08241,0.81133 -1.50518,1.34502 -0.45327,0.62692 -0.2751,1.0237 0.0163,1.66667 0.2897,0.66579 0.78742,1.07173 1.40423,1.41411 0.73182,0.34142 1.43521,0.74051 2.16476,1.08799 0.6287,0.25451 1.26188,0.47178 1.93258,0.57905 0.55807,-0.013 1.04971,0.20866 1.56946,0.37133 0.0839,0.021 0.16786,0.042 0.2518,0.063 0,0 -2.47628,0.32491 -2.47628,0.32491 l 0,0 c -0.0843,-0.0249 -0.16854,-0.0497 -0.25282,-0.0746 -0.51258,-0.17105 -1.02042,-0.30266 -1.56267,-0.33951 -0.66764,-0.14006 -1.30677,-0.37239 -1.93075,-0.64727 -0.72632,-0.36256 -1.44393,-0.74198 -2.1692,-1.1066 -0.63115,-0.38918 -1.12091,-0.87398 -1.41632,-1.56856 -0.30942,-0.71166 -0.47949,-1.23478 -0.0185,-1.93271 0.41678,-0.56738 0.93504,-1.03239 1.52001,-1.42434 0.68518,-0.46668 1.4259,-0.88603 1.94579,-1.54846 0.57798,-0.71192 1.11821,-1.45789 1.52339,-2.28409 0,0 2.4939,0.11571 2.4939,0.11571 z"
       inkscape:connector-curvature="0" />
    <path
       style="opacity:1;fill:#ffffff;fill-opacity:0.74509804;stroke:#ffffff;stroke-width:3.5;stroke-miterlimit:4;stroke-dasharray:none;stroke-opacity:1"
       id="path5860"
       d="m 314.14408,326.03557 c -0.83849,0.25007 -1.68965,0.49647 -2.48994,0.85431 -0.6136,0.35034 -0.60146,0.55443 -0.13375,1.01873 0.49502,0.47212 1.1046,0.80906 1.74168,1.04866 0.36428,0.10127 0.18241,0.0586 0.54537,0.12894 0,0 -2.47335,0.33459 -2.47335,0.33459 l 0,0 c -0.36491,-0.0972 -0.18239,-0.041 -0.54724,-0.16978 -0.64368,-0.28643 -1.25893,-0.64619 -1.75036,-1.15895 -0.48297,-0.58161 -0.53631,-1.02907 0.14806,-1.48169 0.78768,-0.3963 1.65578,-0.60545 2.48263,-0.90514 0,0 2.4769,0.33033 2.4769,0.33033 z"
       inkscape:connector-curvature="0" />
    <path
       style="opacity:1;fill:#ffffff;fill-opacity:0.74509804;stroke:#ffffff;stroke-width:3.5;stroke-miterlimit:4;stroke-dasharray:none;stroke-opacity:1"
       id="path5862"
       d="m 278.26411,318.97437 c 1.0812,0.57175 2.20299,1.07171 3.31868,1.57374 1.17568,0.47556 2.29965,1.05881 3.42783,1.63505 0.76174,0.40411 1.50756,0.90724 2.37643,1.01586 1.35802,0.0272 -1.16536,0.0309 -1.74498,-0.0181 -0.14383,-0.0122 0.28218,-0.0647 0.41751,-0.11484 0.46517,-0.1725 0.8685,-0.45893 1.27088,-0.74068 0.70834,-0.55256 1.46503,-1.04586 2.15145,-1.62555 0.53412,-0.46064 0.62996,-1.09273 0.69193,-1.75763 -0.027,-0.83033 -0.51253,-1.42716 -1.05145,-2.00599 -0.55945,-0.47903 -1.0009,-1.08809 -1.56425,-1.55773 -0.48466,-0.44892 -1.07073,-0.60817 -1.70627,-0.69642 -0.74177,-0.081 -1.41415,-0.32452 -2.09858,-0.60592 -0.62913,-0.27876 -1.30419,-0.37444 -1.98367,-0.42662 4.02873,0.0133 2.01726,-0.17444 1.16684,0.28617 -0.21421,0.11602 -0.29635,0.20137 -0.48137,0.35718 -0.47761,0.46659 -0.91975,0.96794 -1.37761,1.45374 -0.46302,0.50345 -0.98079,0.95567 -1.38796,1.50731 -0.32454,0.69942 -0.72343,1.34994 -1.16205,1.98216 0,0 -2.47898,-0.15006 -2.47898,-0.15006 l 0,0 c 0.43538,-0.63282 0.87362,-1.26402 1.15355,-1.98606 0.39502,-0.57527 0.91914,-1.03407 1.39444,-1.54149 0.46215,-0.48823 0.91126,-0.98846 1.37518,-1.47494 1.26964,-1.20167 2.37284,-0.8375 4.26326,-0.80095 0.6836,0.0753 1.35388,0.21258 1.98379,0.49999 0.68048,0.27267 1.37308,0.45404 2.10109,0.55084 0.65098,0.12945 1.23205,0.36724 1.71898,0.83536 0.53737,0.50866 1.02021,1.0755 1.55855,1.58464 0.56855,0.64151 1.03898,1.31918 1.06351,2.21077 -0.0604,0.71711 -0.15569,1.42782 -0.70462,1.94815 -0.67818,0.60242 -1.45592,1.08277 -2.16681,1.64583 -1.65034,1.23569 -2.41465,1.32615 -4.86256,0.98473 -0.85203,-0.20659 -1.6028,-0.67653 -2.36896,-1.08932 -1.12183,-0.57452 -2.24265,-1.1479 -3.41035,-1.62561 -1.12566,-0.51689 -2.26096,-1.01532 -3.36473,-1.57775 0,0 2.4813,-0.27584 2.4813,-0.27584 z"
       inkscape:connector-curvature="0" />
    <path
       style="opacity:1;fill:#ffffff;fill-opacity:0.74509804;stroke:#ffffff;stroke-width:3.5;stroke-miterlimit:4;stroke-dasharray:none;stroke-opacity:1"
       id="path5864"
       d="m 283.7919,317.71841 c 1.63353,0.81819 3.34021,1.48121 5.0404,2.1472 1.6088,0.47333 3.11246,1.28119 4.73602,1.70148 1.16468,0.073 -0.31372,-0.0251 -2.02035,-4.1e-4 -0.10086,10e-4 0.16722,0.0843 -0.0379,0.16901 -0.0398,0.0164 -0.0807,-0.0304 -0.12211,-0.0423 -0.0668,-0.0192 -0.13472,-0.0341 -0.20208,-0.0512 -0.60078,-0.31586 -1.24442,-0.51428 -1.91451,-0.60654 -0.7651,-0.058 -1.52706,-0.15684 -2.28288,-0.28975 -0.80774,-0.14395 -1.60037,-0.35242 -2.4134,-0.46931 -0.69919,0.0173 -1.30903,-0.21651 -1.94549,-0.4671 -0.41908,-0.1995 -0.21343,-0.0919 -0.61689,-0.32286 0,0 2.47446,-0.26624 2.47446,-0.26624 l 0,0 c 0.40164,0.20776 0.19727,0.11063 0.61316,0.29125 0.63096,0.24259 1.26087,0.38223 1.93899,0.41369 0.80577,0.13591 1.59613,0.34554 2.40347,0.47258 0.76135,0.11552 1.52499,0.20758 2.29048,0.28915 0.67482,0.13033 1.31034,0.36787 1.93578,0.6515 0.24297,0.11636 0.40308,0.17424 0.41042,0.48375 10e-4,0.0434 -0.007,0.11795 -0.0508,0.11992 -0.87514,0.0398 -1.75225,0.0186 -2.62813,0.002 -0.0978,-0.002 -0.19185,-0.0386 -0.28777,-0.0579 -1.57955,-0.49639 -3.07698,-1.23281 -4.65607,-1.73457 -1.73497,-0.67739 -3.47801,-1.3481 -5.15039,-2.1708 0,0 2.48561,-0.26237 2.48561,-0.26237 z"
       inkscape:connector-curvature="0" />
    <path
       style="opacity:1;fill:#ffffff;fill-opacity:0.74509804;stroke:#ffffff;stroke-width:3.5;stroke-miterlimit:4;stroke-dasharray:none;stroke-opacity:1"
       id="path5866"
       d="m 286.08657,316.01802 c 0.60309,-0.006 1.20401,0.0736 1.80411,0.12717 0,0 -2.44702,0.36541 -2.44702,0.36541 l 0,0 c -0.6071,-0.0535 -1.2155,-0.11945 -1.82594,-0.10155 0,0 2.46885,-0.39103 2.46885,-0.39103 z"
       inkscape:connector-curvature="0" />
    <path
       style="opacity:1;fill:#ffffff;fill-opacity:0.74509804;stroke:#ffffff;stroke-width:3.5;stroke-miterlimit:4;stroke-dasharray:none;stroke-opacity:1"
       id="path5868"
       d="m 302.40678,350.89179 c -0.6087,-1.10421 -1.25985,-2.18964 -1.96014,-3.23867 -0.5828,-0.7758 -1.02118,-1.62047 -1.42203,-2.49852 -0.31417,-0.69935 -0.43724,-1.40622 -0.33828,-2.16309 0.17506,-0.78393 0.69232,-1.41239 1.17496,-2.03161 0.50378,-0.60984 1.01134,-1.22408 1.63119,-1.71961 0.54429,-0.36689 1.18076,-0.44778 1.81901,-0.48924 1.13161,-0.0405 2.26694,-0.0167 3.39758,-0.0161 0.33081,1.4e-4 0.64461,0.005 0.97289,0.0478 0.61988,0.20674 1.26709,0.29765 1.89847,0.45262 0.63511,0.13631 1.26236,0.19903 1.83874,0.51657 0.58322,0.36868 0.97772,0.93364 1.36503,1.48954 0.26441,0.37498 0.383,0.81302 0.48573,1.2528 0,0 -2.49092,0.0583 -2.49092,0.0583 l 0,0 c -0.10025,-0.41132 -0.2226,-0.81306 -0.47877,-1.15876 -0.37515,-0.52902 -0.77064,-1.05722 -1.35865,-1.36478 -0.58479,-0.25179 -1.21515,-0.30596 -1.82937,-0.45897 -0.63364,-0.13161 -1.2592,-0.29299 -1.89287,-0.4216 -0.42651,-0.0269 -0.23281,-0.0211 -0.64796,-0.023 -0.10759,-4.9e-4 -0.43039,-8.9e-4 -0.32279,-0.001 3.95452,-0.004 2.3913,-0.008 1.52553,0.004 -0.61677,0.0211 -1.24163,0.0541 -1.80194,0.34275 -0.64255,0.44674 -1.13293,1.06295 -1.6385,1.65369 -0.46092,0.57955 -0.95859,1.17357 -1.15794,1.90047 -0.10263,0.7089 0.0303,1.37102 0.3279,2.02355 0.38947,0.8656 0.8433,1.68621 1.39651,2.46068 0.69464,1.06255 1.3321,2.16192 1.99773,3.24276 0,0 -2.49111,0.1393 -2.49111,0.1393 z"
       inkscape:connector-curvature="0" />
    <path
       style="opacity:1;fill:#ffffff;fill-opacity:0.74509804;stroke:#ffffff;stroke-width:3.5;stroke-miterlimit:4;stroke-dasharray:none;stroke-opacity:1"
       id="path5870"
       d="m 305.6598,349.00183 c -0.69014,-0.58626 -1.4071,-1.1396 -2.09365,-1.7308 -0.56183,-0.47341 -0.84079,-1.05849 -0.96288,-1.76618 -0.12879,-0.67299 0.12872,-1.2362 0.49588,-1.7803 0.42539,-0.57572 0.92525,-1.07922 1.50101,-1.50204 0.5491,-0.43588 1.18772,-0.71796 1.84371,-0.94994 1.39291,-0.35752 2.89553,-0.37354 4.30961,-0.16699 0.6899,0.18411 0.91852,0.48839 0.81116,1.19306 -0.18188,0.63084 -0.5858,1.08958 -1.15373,1.39697 -0.0837,0.0375 -0.1674,0.075 -0.25111,0.11242 0,0 -2.47948,-0.28871 -2.47948,-0.28871 l 0,0 c 0.0833,-0.0354 0.16665,-0.0709 0.24997,-0.10633 0.55065,-0.21508 0.94688,-0.58172 1.13759,-1.15578 0.11554,-0.61605 -0.25297,-0.68366 -0.78329,-0.79042 -0.97219,-0.0883 -0.59812,-0.045 1.8934,-0.0442 0.10156,3e-5 -0.20284,0.0111 -0.30407,0.0194 -0.21249,0.0173 -0.42771,0.0411 -0.63788,0.0774 -0.10736,0.0185 -0.21359,0.0431 -0.32038,0.0646 -0.6521,0.19802 -1.29593,0.4561 -1.83995,0.87436 -0.57064,0.39736 -1.0692,0.85993 -1.4902,1.41824 -0.35089,0.48227 -0.61538,0.96725 -0.48956,1.58406 0.12173,0.65293 0.41691,1.16962 0.93837,1.5973 0.69153,0.59233 1.40886,1.15199 2.11613,1.72513 0,0 -2.49065,0.21875 -2.49065,0.21875 z"
       inkscape:connector-curvature="0" />
    <ellipse
       style="opacity:1;fill:#000080;fill-opacity:0.74509804;stroke:#00ffff;stroke-width:3.5;stroke-miterlimit:4;stroke-dasharray:none;stroke-opacity:1"
       id="path5872"
       cx="90.913727"
       cy="215.45082"
       rx="11.111678"
       ry="8.586297" />
    <circle
       style="opacity:1;fill:#000080;fill-opacity:0.74509804;stroke:#00ffff;stroke-width:3.5;stroke-miterlimit:4;stroke-dasharray:none;stroke-opacity:1"
       id="path5874"
       cx="291.42902"
       cy="210.40007"
       r="13.637059" />
    <path
       style="opacity:1;fill:#ff6600;fill-opacity:0.74509804;stroke:#ff7f2a;stroke-width:3.5;stroke-miterlimit:4;stroke-dasharray:none;stroke-opacity:1"
       id="path5878"
       d="m 33.283514,749.27294 c -0.05748,3.23163 -0.04308,6.4643 -0.03121,9.69633 0.0032,2.72417 0.01896,5.44841 0.01287,8.17259 0.0064,2.53579 -5.01e-4,5.07157 0.0029,7.60736 0.03501,2.13013 -0.388599,4.33536 0.989256,6.11027 1.618122,1.54352 3.570439,2.32488 5.724248,2.76113 2.429862,0.38413 4.827797,0.8644 7.284562,1.084 2.502873,0.1915 5.014753,0.19693 7.523416,0.20676 -2.897152,-0.0239 -5.794304,-0.0478 -8.691456,-0.0717 0,0 9.868727,1.46171 9.868727,1.46171 l 0,0 c -3.675825,0.0545 -7.351651,0.10898 -11.027477,0.16347 -2.511996,-0.0232 -5.028306,-0.0486 -7.530055,-0.30102 -2.463756,-0.27924 -4.889918,-0.76383 -7.326175,-1.21856 -2.234871,-0.64239 -4.29853,-1.6634 -5.798459,-3.50297 -1.20764,-2.0917 -1.043683,-4.3378 -0.984221,-6.6931 0.0034,-2.53579 -0.0035,-5.07157 0.0029,-7.60736 -0.0061,-2.72418 0.0097,-5.44842 0.01287,-8.17259 0.01187,-3.23203 0.02627,-6.4647 -0.03121,-9.69633 0,0 9.998485,0 9.998485,0 z"
       inkscape:connector-curvature="0" />
    <path
       style="opacity:1;fill:#ff6600;fill-opacity:0.74509804;stroke:#ff7f2a;stroke-width:3.5;stroke-miterlimit:4;stroke-dasharray:none;stroke-opacity:1"
       id="path5888"
       d="m 433.65171,830.04972 c 0.8653,-3.78167 1.97171,-7.48362 3.37273,-11.10073 1.22677,-3.50859 3.04803,-6.72487 5.00077,-9.86828 1.73467,-3.04109 3.65684,-5.97301 5.67131,-8.83545 1.57325,-2.85364 3.53611,-5.43841 5.45285,-8.06142 1.4593,-2.27656 2.74641,-4.67716 4.75151,-6.52254 4.8982,-2.94648 12.6709,-3.26717 16.35981,1.41515 1.2538,2.56888 1.69043,5.44151 2.07846,8.24805 0.32299,1.85941 0.0894,3.77258 0.59135,5.60312 0.16825,0.61366 0.76558,2.11654 0.99388,2.70793 1.26354,2.89919 3.12536,5.47044 4.7465,8.17086 1.39299,2.1813 2.59567,4.51342 3.35034,6.99304 0.83996,2.51552 2.15513,4.83592 3.24941,7.24832 0.19849,0.39722 0.38112,0.80277 0.59547,1.19166 0.16784,0.30451 0.36547,0.59162 0.54993,0.88636 0.11403,0.18221 0.20091,0.38544 0.34553,0.54447 0.0435,0.0478 0.25372,0.0442 0.18907,0.0434 -10.61014,-0.14134 -9.05357,3.01656 -10.65803,-1.06002 -0.98101,-2.23688 -3.13529,-3.54397 -4.64425,-5.39535 -1.73964,-1.83499 -2.12267,-4.24144 -2.73865,-6.58292 -0.80447,-2.30012 -1.64782,-4.57224 -2.58429,-6.82117 -0.74245,-1.31548 -0.63592,-3.17409 -1.66038,-4.34803 -0.42923,-0.49186 -1.2747,-0.80367 -1.83065,-1.06078 -0.37154,-0.11406 -0.72781,-0.30443 -1.11463,-0.3422 -0.41758,-0.0408 -1.67317,0.0982 -1.25379,0.11093 2.84067,0.086 5.68576,-0.0102 8.52522,0.10924 0.43971,0.0185 -0.87166,0.12288 -1.30589,0.19454 -0.86955,0.14349 -1.7353,0.30928 -2.60427,0.45628 -2.55657,0.4313 -5.1456,0.56025 -7.73258,0.63569 -7.39773,0.71275 -11.68873,-0.0338 -18.03132,-1.94885 0,0 9.87662,-1.27052 9.87662,-1.27052 l 0,0 c 4.4987,1.34063 15.00799,2.5682 -1.69285,1.68379 2.57999,-0.0481 5.16464,-0.12271 7.72179,-0.50078 5.73536,-0.87414 12.04141,-2.48751 17.53181,-0.17786 2.57742,1.72873 2.5149,3.34678 3.52601,6.06525 0.95493,2.28935 1.81951,4.6062 2.6014,6.96109 0.57168,2.23054 1.02714,4.43036 2.71884,6.13509 1.63853,1.85189 3.77487,3.32224 4.6839,5.71719 1.57862,3.90794 0.81425,1.17753 -9.37745,2.23616 -0.0275,0.003 -0.74427,-1.33854 -0.98877,-1.81505 -0.20672,-0.40288 -0.39612,-0.81441 -0.59418,-1.22162 -1.12041,-2.44163 -2.45458,-4.79926 -3.27007,-7.36666 -0.79795,-2.38624 -1.95754,-4.6405 -3.30538,-6.76277 -1.65375,-2.74305 -3.53507,-5.37411 -4.76369,-8.34831 -1.12677,-3.02363 -1.46906,-5.32465 -1.5901,-8.53534 -0.35858,-2.61204 -0.73729,-5.36134 -2.09073,-7.66652 -0.63418,-0.63962 -0.80391,-0.9265 -1.66073,-1.30512 -0.36086,-0.15946 -1.52697,-0.31191 -1.1335,-0.34057 16.80876,-1.22412 9.26157,-0.85225 6.31842,0.40074 -2.19398,1.51767 -3.31248,4.08642 -4.7653,6.25979 -1.90786,2.62521 -3.95656,5.15164 -5.45384,8.05162 -2.04619,2.82558 -3.97178,5.74503 -5.71014,8.77021 -1.92905,3.09598 -3.74246,6.24569 -4.98966,9.69082 -1.43591,3.55174 -2.55398,7.20445 -3.26549,10.97293 0,0 -9.99232,-0.24484 -9.99232,-0.24484 z"
       inkscape:connector-curvature="0" />
    <path
       style="opacity:1;fill:#ff6600;fill-opacity:0.74509804;stroke:#ff7f2a;stroke-width:3.5;stroke-miterlimit:4;stroke-dasharray:none;stroke-opacity:1"
       id="path5890"
       d="m 527.47277,564.43986 c 0.46801,-3.56423 0.66369,-7.14977 1.1104,-10.71695 0.52495,-3.27183 1.67838,-6.39644 2.61055,-9.56539 0.7062,-2.92114 1.66109,-5.77172 2.37453,-8.69089 1.07008,-2.78202 1.86525,-5.6606 2.92568,-8.44416 0.77442,-2.561 2.35866,-4.71503 3.62767,-7.03036 3.01694,-6.96576 4.02882,-4.39329 14.11363,-4.45602 0.3452,0.2206 0.73987,0.3783 1.03561,0.6618 2.1001,2.01314 3.26175,6.46115 4.14775,9.16737 1.47897,4.05563 2.28125,8.29619 3.15047,12.51005 0.68022,2.99136 1.11402,6.05683 1.95238,9.00794 1.06904,2.90004 1.5718,5.90776 1.87821,8.96799 0.26394,2.78482 0.43461,5.621 1.00482,8.36592 1.71961,2.94708 0.746,1.15152 -9.4656,-0.56552 -0.29127,-0.049 0.31097,-0.5036 0.43811,-0.77019 0.49461,-1.03707 0.70331,-2.11374 0.91054,-3.23414 0.0933,-2.84318 0.68514,-5.46228 1.77673,-8.07459 1.03895,-2.37146 1.8384,-4.82846 2.58024,-7.30566 0.55096,-3.20334 1.32765,-6.17981 3.13372,-8.91474 1.97931,-2.44042 4.41242,-4.45632 6.72913,-6.56312 2.54817,-2.22581 5.24091,-4.27762 8.1008,-6.08466 2.3879,-1.44783 4.91541,-2.47331 7.64179,-3.04438 8.81932,-0.76778 12.06895,-2.45507 15.65524,3.95467 1.35296,2.8099 2.27778,5.77721 2.77024,8.85094 0.51197,2.73227 -0.20177,5.38781 -0.79751,8.03527 -0.73384,2.74616 -1.51662,5.48067 -2.10979,8.26139 -0.54318,2.79559 -1.45615,5.52857 -2.33428,8.23937 0,0 -9.95961,-0.3194 -9.95961,-0.3194 l 0,0 c 0.90675,-2.66336 1.79686,-5.37332 2.35502,-8.12722 0.5847,-2.78606 1.33537,-5.53119 2.08805,-8.27603 0.57445,-2.51992 1.30043,-5.04655 0.81041,-7.65148 -0.49672,-2.95022 -1.35748,-5.81594 -2.75068,-8.47725 -0.63633,-0.99181 -1.27111,-2.12916 -2.39795,-2.65504 -0.30753,-0.14351 -1.31477,-0.27206 -0.97589,-0.29015 5.07508,-0.27096 12.1651,-7e-4 7.51734,-0.16497 -2.72785,0.43031 -5.235,1.29095 -7.63779,2.67781 -2.87856,1.69505 -5.52717,3.731 -8.06625,5.89769 -2.27803,2.07672 -4.66112,4.05526 -6.73289,6.34391 -1.98559,2.64554 -2.51912,5.40367 -3.08694,8.59479 -0.74047,2.51366 -1.52488,5.01374 -2.57507,7.41875 -1.09818,2.53859 -1.74506,5.046 -1.77804,7.8403 -0.19331,1.26111 -0.15418,1.34464 -0.509,2.49154 -1.11248,3.59597 -7.7951,12.66684 -11.34726,2.07549 -0.34694,-2.80531 -0.71899,-5.61278 -0.92871,-8.43125 -0.29357,-3.00363 -0.84839,-5.94268 -1.87192,-8.79291 -0.8334,-2.97597 -1.26448,-6.06307 -1.91733,-9.08322 -0.83056,-4.17843 -1.6204,-8.37982 -3.09758,-12.39142 -0.75749,-2.23874 -2.05948,-7.07384 -4.21868,-8.35266 -0.29713,-0.17599 -0.66443,-0.18861 -0.99665,-0.28291 2.96093,-0.059 5.92187,-0.11801 8.88281,-0.17701 -0.32544,0.0252 -0.67235,-0.0433 -0.97631,0.0756 -0.29279,0.11459 -0.5254,0.35745 -0.73319,0.5934 -0.72906,0.82788 -0.95752,1.98995 -1.44722,2.94611 -1.21871,2.30509 -2.87242,4.37846 -3.64659,6.90659 -1.08168,2.73187 -1.8199,5.58935 -2.93006,8.31407 -0.71708,2.93295 -1.64927,5.80417 -2.38197,8.73211 -0.89024,3.13319 -2.09169,6.19186 -2.63801,9.41213 -0.46723,3.56156 -0.6794,7.13966 -1.01619,10.71502 0,0 -9.99691,-0.12433 -9.99691,-0.12433 z"
       inkscape:connector-curvature="0" />
    <path
       style="opacity:1;fill:#ff6600;fill-opacity:0.74509804;stroke:#ff7f2a;stroke-width:4.38829041;stroke-miterlimit:4;stroke-dasharray:none;stroke-opacity:1"
       id="path5892"
       d="m 495.99843,298.44566 c -0.23631,-4.07312 -1.17848,-8.06954 -1.81169,-12.10195 -0.56083,-3.44411 -0.64288,-6.92366 -0.69358,-10.39575 -0.20262,-3.42261 0.8071,-6.78055 1.93458,-10.03116 1.02362,-3.34624 2.87557,-6.38945 4.76548,-9.40923 1.38319,-2.67333 2.78264,-5.33451 4.25063,-7.97608 1.73428,-3.34198 5.16015,-4.70082 8.99397,-5.6801 3.9566,-0.85179 8.03731,-0.92751 12.08899,-0.98567 5.63028,-0.0284 12.38839,-0.0659 17.25164,-0.009 2.40635,0.028 4.36311,0.82789 6.1977,2.09852 2.48834,2.23662 3.3187,5.09602 3.79202,8.08016 0.29763,2.97409 0.48145,5.98479 0.15525,8.96067 -0.29391,3.29832 -1.16101,6.38075 -3.07921,9.24324 -1.86697,2.50707 -4.45146,4.36386 -7.5884,5.527 -3.18233,0.92818 -6.55184,0.99089 -9.87299,1.05335 -7.80094,0.0677 -15.60255,0.0126 -23.40363,-0.0153 -2.36106,-0.17375 -4.6138,-0.88346 -6.82184,-1.59008 0,0 13.28247,-1.43914 13.28247,-1.43914 l 0,0 c 2.20378,0.61427 4.42736,1.22762 6.77081,1.21116 1.68841,0.006 3.37681,0.0146 5.06522,0.0201 0.57979,0.002 2.31917,0.003 1.73937,0.005 -2.32199,0.001 -16.71842,0.004 -9.87113,0.002 3.27832,-0.0234 6.59169,-0.015 9.80242,-0.67128 3.10407,-0.7962 5.63739,-2.44174 7.52419,-4.74387 1.98663,-2.6655 2.79473,-5.55852 3.04892,-8.71956 0.35437,-2.87974 0.13014,-5.7987 -0.14816,-8.67857 -0.45549,-2.69401 -1.22448,-5.31859 -3.75994,-7.12377 -1.35042,-0.6997 -2.57921,-1.14206 -4.16335,-1.30499 -0.62119,-0.0638 -2.4987,-0.0906 -1.87323,-0.0974 3.05175,-0.0331 16.55999,-6.8e-4 9.15595,-0.002 -4.02933,0.025 -8.08372,0.0336 -12.05581,0.7043 -3.5803,0.70774 -7.09343,1.61781 -8.84836,4.67531 -1.45016,2.67394 -2.93722,5.32476 -4.28285,8.03847 -1.86236,2.95191 -3.74317,5.89233 -4.73364,9.17908 -1.15043,3.11731 -2.13084,6.36423 -1.95611,9.66293 0.0657,3.42562 0.16317,6.85613 0.67402,10.25815 0.61113,4.04132 1.47376,8.05027 1.90997,12.11124 0,0 -13.43968,0.14538 -13.43968,0.14538 z"
       inkscape:connector-curvature="0" />
    <flowRoot
       xml:space="preserve"
       id="flowRoot5904"
       style="font-style:normal;font-weight:normal;font-size:40px;line-height:125%;font-family:sans-serif;letter-spacing:0px;word-spacing:0px;fill:#000000;fill-opacity:1;stroke:none;stroke-width:1px;stroke-linecap:butt;stroke-linejoin:miter;stroke-opacity:1"><flowRegion
         id="flowRegion5906"><rect
           id="rect5908"
           width="259.60919"
           height="118.18785"
           x="22.223356"
           y="798.8139" /></flowRegion><flowPara
         id="flowPara5910">Opperating</flowPara><flowPara
         id="flowPara5912">System</flowPara></flowRoot>    <flowRoot
       xml:space="preserve"
       id="flowRoot5914"
       style="font-style:normal;font-weight:normal;font-size:40px;line-height:125%;font-family:sans-serif;letter-spacing:0px;word-spacing:0px;fill:#000000;fill-opacity:1;stroke:none;stroke-width:1px;stroke-linecap:butt;stroke-linejoin:miter;stroke-opacity:1"><flowRegion
         id="flowRegion5916"><rect
           id="rect5918"
           width="250.51784"
           height="77.781746"
           x="442.44681"
           y="843.26062" /></flowRegion><flowPara
         id="flowPara5920">Web Server</flowPara></flowRoot>    <flowRoot
       xml:space="preserve"
       id="flowRoot5922"
       style="font-style:normal;font-weight:normal;font-size:40px;line-height:125%;font-family:sans-serif;letter-spacing:0px;word-spacing:0px;fill:#000000;fill-opacity:1;stroke:none;stroke-width:1px;stroke-linecap:butt;stroke-linejoin:miter;stroke-opacity:1"><flowRegion
         id="flowRegion5924"><rect
           id="rect5926"
           width="207.08127"
           height="102.02541"
           x="516.18793"
           y="587.69202" /></flowRegion><flowPara
         id="flowPara5928">Server</flowPara><flowPara
         id="flowPara5930">Language</flowPara></flowRoot>    <flowRoot
       xml:space="preserve"
       id="flowRoot5972"
       style="font-style:normal;font-weight:normal;font-size:40px;line-height:125%;font-family:sans-serif;letter-spacing:0px;word-spacing:0px;fill:#000000;fill-opacity:1;stroke:none;stroke-width:1px;stroke-linecap:butt;stroke-linejoin:miter;stroke-opacity:1"><flowRegion
         id="flowRegion5974"><rect
           id="rect5976"
           width="237.38585"
           height="179.80716"
           x="490.93414"
           y="308.88992" /></flowRegion><flowPara
         id="flowPara5978">The Web</flowPara><flowPara
         id="flowPara5980">Site Server</flowPara><flowPara
         id="flowPara5982">Language</flowPara></flowRoot>    <flowRoot
       xml:space="preserve"
       id="flowRoot5992"
       style="font-style:normal;font-weight:normal;font-size:42.5px;line-height:125%;font-family:sans-serif;letter-spacing:0px;word-spacing:0px;fill:#ff6600;fill-opacity:1;stroke:none;stroke-width:1px;stroke-linecap:butt;stroke-linejoin:miter;stroke-opacity:1;"><flowRegion
         id="flowRegion5994"><rect
           id="rect5996"
           width="215.35715"
           height="52.142857"
           x="57.142857"
           y="747.36218"
           style="font-size:42.5px;fill:#ff6600;" /></flowRegion><flowPara
         id="flowPara5998">inux</flowPara></flowRoot>    <flowRoot
       xml:space="preserve"
       id="flowRoot6000"
       style="font-style:normal;font-weight:normal;font-size:40px;line-height:125%;font-family:sans-serif;letter-spacing:0px;word-spacing:0px;fill:#ff6600;fill-opacity:1;stroke:none;stroke-width:1px;stroke-linecap:butt;stroke-linejoin:miter;stroke-opacity:1;"><flowRegion
         id="flowRegion6002"><rect
           id="rect6004"
           width="192.85715"
           height="52.142857"
           x="491.78571"
           y="785.93365"
           style="fill:#ff6600;" /></flowRegion><flowPara
         id="flowPara6006">pache</flowPara></flowRoot>    <flowRoot
       xml:space="preserve"
       id="flowRoot6008"
       style="font-style:normal;font-weight:normal;font-size:40px;line-height:125%;font-family:sans-serif;letter-spacing:0px;word-spacing:0px;fill:#ff7f2a;fill-opacity:1;stroke:none;stroke-width:1px;stroke-linecap:butt;stroke-linejoin:miter;stroke-opacity:1;"><flowRegion
         id="flowRegion6010"><rect
           id="rect6012"
           width="112.14286"
           height="57.857143"
           x="612.85712"
           y="519.14789"
           style="fill:#ff7f2a;" /></flowRegion><flowPara
         id="flowPara6014">ySQL</flowPara></flowRoot>    <flowRoot
       xml:space="preserve"
       id="flowRoot6016"
       style="font-style:normal;font-weight:normal;font-size:40px;line-height:125%;font-family:sans-serif;letter-spacing:0px;word-spacing:0px;fill:#000000;fill-opacity:1;stroke:none;stroke-width:1px;stroke-linecap:butt;stroke-linejoin:miter;stroke-opacity:1"><flowRegion
         id="flowRegion6018"><rect
           id="rect6020"
           width="125"
           height="58.214287"
           x="568.21429"
           y="245.57649" /></flowRegion><flowPara
         id="flowPara6022"
         style="font-size:50px;fill:#ff6600">HP</flowPara></flowRoot>  </g>
</svg>
