<?xml version="1.0" encoding="UTF-8" standalone="no"?>
<!-- Created with Inkscape (http://www.inkscape.org/) -->

<svg
   xmlns:dc="http://purl.org/dc/elements/1.1/"
   xmlns:cc="http://creativecommons.org/ns#"
   xmlns:rdf="http://www.w3.org/1999/02/22-rdf-syntax-ns#"
   xmlns:svg="http://www.w3.org/2000/svg"
   xmlns="http://www.w3.org/2000/svg"
   xmlns:sodipodi="http://sodipodi.sourceforge.net/DTD/sodipodi-0.dtd"
   xmlns:inkscape="http://www.inkscape.org/namespaces/inkscape"
   width="210mm"
   height="297mm"
   viewBox="0 0 744.09448819 1052.3622047"
   id="svg6043"
   version="1.1"
   inkscape:version="0.91 r13725"
   sodipodi:docname="stack.svg">
  <defs
     id="defs6045" />
  <sodipodi:namedview
     id="base"
     pagecolor="#ffffff"
     bordercolor="#666666"
     borderopacity="1.0"
     inkscape:pageopacity="0.0"
     inkscape:pageshadow="2"
     inkscape:zoom="0.7"
     inkscape:cx="373.65731"
     inkscape:cy="507.55518"
     inkscape:document-units="px"
     inkscape:current-layer="layer1"
     showgrid="false"
     inkscape:window-width="1920"
     inkscape:window-height="1149"
     inkscape:window-x="0"
     inkscape:window-y="0"
     inkscape:window-maximized="1" />
  <metadata
     id="metadata6048">
    <rdf:RDF>
      <cc:Work
         rdf:about="">
        <dc:format>image/svg+xml</dc:format>
        <dc:type
           rdf:resource="http://purl.org/dc/dcmitype/StillImage" />
        <dc:title />
      </cc:Work>
    </rdf:RDF>
  </metadata>
  <g
     inkscape:label="Layer 1"
     inkscape:groupmode="layer"
     id="layer1">
    <flowRoot
       xml:space="preserve"
       id="flowRoot6051"
       style="fill:black;stroke:none;stroke-opacity:1;stroke-width:1px;stroke-linejoin:miter;stroke-linecap:butt;fill-opacity:1;font-family:sans-serif;font-style:normal;font-weight:normal;font-size:90px;line-height:125%;letter-spacing:0px;word-spacing:0px;"><flowRegion
         id="flowRegion6053"><rect
           id="rect6055"
           width="622.85712"
           height="238.57143"
           x="30"
           y="40.933632"
           style="font-size:90px;" /></flowRegion><flowPara
         id="flowPara6057" /></flowRoot>    <text
       xml:space="preserve"
       style="font-style:normal;font-weight:normal;font-size:40px;line-height:125%;font-family:sans-serif;letter-spacing:0px;word-spacing:0px;fill:#0000ff;fill-opacity:1;stroke:none;stroke-width:1px;stroke-linecap:butt;stroke-linejoin:miter;stroke-opacity:1;"
       x="28.571428"
       y="78.076492"
       id="text6059"
       sodipodi:linespacing="125%"><tspan
         sodipodi:role="line"
         id="tspan6061"
         x="28.571428"
         y="78.076492"
         style="font-style:normal;font-variant:normal;font-weight:500;font-stretch:normal;font-size:80px;font-family:'Century Schoolbook L';-inkscape-font-specification:'Century Schoolbook L Medium';fill:#0000ff;">What is a &quot;stack&quot;?</tspan></text>
    <path
       style="opacity:1;fill:#0000ff;fill-opacity:0.74509804;stroke:#0000ff;stroke-width:3.5;stroke-miterlimit:4;stroke-dasharray:none;stroke-opacity:0.74509804"
       id="path6636"
       d="m 11.078789,114.90916 c 10.953367,4.40784 22.197359,7.94879 33.685883,10.64212 17.576826,4.04454 35.633177,4.83755 53.588729,5.44244 15.663799,0.38434 31.333669,0.40603 47.001219,0.43805 5.28923,0.0108 10.58037,-0.11871 15.8677,0.0233 6.13012,0.16464 12.25009,0.59757 18.37514,0.89635 35.91115,2.0273 71.59619,6.63529 107.43978,9.46862 33.53049,2.65049 45.49112,3.05199 79.619,4.85808 79.18606,3.63721 158.4629,4.3941 237.71907,4.81587 36.38225,-0.62812 72.88309,1.5534 109.20646,-1.18869 15.15697,-1.32892 29.36752,-6.53121 43.44088,-11.9235 4.38726,-1.60646 8.65383,-3.48673 12.84957,-5.53415 0,0 13.8805,1.55178 13.8805,1.55178 l 0,0 c -4.25788,2.11434 -8.58674,4.06086 -13.076,5.64294 -14.35152,5.32582 -28.7451,10.78689 -44.13706,12.21531 -3.73141,0.28159 -7.45643,0.6671 -11.19423,0.84478 -12.56083,0.59708 -32.76456,0.33721 -43.25793,0.32134 -26.06656,-0.0394 -52.13304,-0.14679 -78.19929,-0.27533 -79.00961,-0.53719 -158.03735,-1.388 -236.97831,-4.97891 -33.84059,-1.75351 -47.12697,-2.22822 -80.45831,-4.76818 -36.36676,-2.77127 -72.58642,-7.27732 -109.02244,-9.17975 -6.21101,-0.26627 -12.41791,-0.65842 -18.63304,-0.79881 -5.37068,-0.12132 -10.74409,0.0144 -16.11614,0.0139 -15.80233,-0.001 -31.60755,-0.0104 -47.405724,-0.41791 -18.047572,-0.64415 -36.188987,-1.51915 -53.837652,-5.67483 -11.700672,-2.82938 -23.1664103,-6.47705 -34.4087527,-10.78913 0,0 14.0509477,-1.64567 14.0509477,-1.64567 z"
       inkscape:connector-curvature="0" />
    <rect
       style="opacity:1;fill:#00ff00;fill-opacity:0.74509804;stroke:#000000;stroke-width:3.5;stroke-miterlimit:4;stroke-dasharray:none;stroke-opacity:0.74509804"
       id="rect6666"
       width="272.85715"
       height="105.71429"
       x="18.571428"
       y="249.50507" />
    <rect
       style="opacity:1;fill:#00ff00;fill-opacity:0.74509804;stroke:#000000;stroke-width:3.5;stroke-miterlimit:4;stroke-dasharray:none;stroke-opacity:0.74509804"
       id="rect6668"
       width="285.71429"
       height="117.14286"
       x="441.42856"
       y="253.79077" />
    <rect
       style="opacity:1;fill:#00ff00;fill-opacity:0.74509804;stroke:#000000;stroke-width:3.5;stroke-miterlimit:4;stroke-dasharray:none;stroke-opacity:0.74509804"
       id="rect6670"
       width="282.85715"
       height="131.42857"
       x="232.85715"
       y="672.36218" />
    <rect
       style="opacity:1;fill:#00ff00;fill-opacity:0.74509804;stroke:#000000;stroke-width:3.5;stroke-miterlimit:4;stroke-dasharray:none;stroke-opacity:0.74509804"
       id="rect6674"
       width="697.14288"
       height="182.85715"
       x="14.285714"
       y="855.21936" />
    <flowRoot
       xml:space="preserve"
       id="flowRoot6676"
       style="font-style:normal;font-weight:normal;font-size:40px;line-height:125%;font-family:sans-serif;letter-spacing:0px;word-spacing:0px;fill:#000000;fill-opacity:1;stroke:none;stroke-width:1px;stroke-linecap:butt;stroke-linejoin:miter;stroke-opacity:1"><flowRegion
         id="flowRegion6678"><rect
           id="rect6680"
           width="670"
           height="155.71428"
           x="30"
           y="875.21936" /></flowRegion><flowPara
         id="flowPara6682"
         style="font-size:52.5px;text-anchor:middle;text-align:center">When programs work together</flowPara></flowRoot>    <path
       style="opacity:1;fill:#000080;fill-opacity:0.74509804;stroke:#0000ff;stroke-width:3.5;stroke-miterlimit:4;stroke-dasharray:none;stroke-opacity:0.74509804"
       id="path6684"
       d="m 327.21572,670.99515 c -0.11438,-4.61676 0.47577,-9.19447 0.90553,-13.78081 0.65113,-3.94293 1.35011,-7.86992 1.70725,-11.85251 0.26866,-3.95665 0.28063,-7.9243 0.2832,-11.88817 -0.43923,-3.62665 -0.72884,-7.29053 -1.34712,-10.89154 -0.92439,-4.68018 -2.70476,-9.03208 -4.82023,-13.28406 -1.96523,-3.8234 -3.83361,-7.71468 -6.04618,-11.40372 -2.54555,-4.00629 -2.79015,-8.49071 -2.14551,-13.0497 0.26462,-2.37895 1.05383,-4.76204 1.06773,-7.17027 0.007,-1.17088 -0.33843,-2.81804 -0.53601,-3.94576 -0.6863,-4.08355 -2.02529,-8.01096 -2.38162,-12.14319 -0.34321,-3.67607 0.60184,-7.234 1.18064,-10.82842 0.70698,-3.92467 2.13192,-7.62709 4.1512,-11.05061 2.19951,-3.42923 4.70411,-6.61619 7.3743,-9.68649 2.98544,-3.37045 6.16989,-6.55501 9.34596,-9.74364 2.76694,-3.38349 6.37314,-5.35441 10.20627,-7.23814 3.26871,-1.7281 6.31466,-3.83769 9.38857,-5.88287 2.82516,-1.93697 5.67244,-3.82911 8.6163,-5.58163 2.83068,-1.74622 6.0442,-2.65586 9.23632,-3.4837 3.33253,-0.82873 6.76902,-0.97681 10.18496,-1.08509 8.00763,0.4164 16.7791,-2.32253 24.29733,0.88134 0.77013,0.32819 1.4734,0.79517 2.21009,1.19275 4.58491,2.68242 8.17526,6.30154 11.03584,10.73372 2.57502,4.83571 4.23614,10.19441 5.65653,15.4803 1.12654,4.44975 2.35955,8.87022 3.48658,13.31928 0.89869,3.65383 1.61558,7.33427 2.07532,11.06945 0.35786,3.22758 0.42426,6.47661 0.4337,9.7208 -0.10765,3.90381 -1.77731,7.14565 -4.31963,9.99739 -2.55689,3.06205 -6.31188,4.33796 -9.6317,6.29996 -3.36324,2.01375 -4.67496,5.03185 -5.81054,8.57872 -0.90807,3.48389 -1.83989,6.9737 -2.45993,10.52374 -0.53131,3.52932 -0.61076,7.10234 -0.6575,10.66435 -0.13089,3.49155 -0.0821,6.93568 0.81124,10.32713 1.43848,2.9293 2.32297,6.02815 3.18267,9.15789 1.51104,3.70177 2.52682,7.5685 3.76946,11.35908 1.68273,3.32787 2.59341,6.86254 3.41293,10.46896 0.83646,4.23928 1.51286,8.51437 2.1728,12.78644 0.80471,3.97273 0.68617,7.92891 0.26143,11.9271 -0.0639,0.6163 -0.12781,1.2326 -0.19172,1.8489 0,0 -14.08624,-0.14196 -14.08624,-0.14196 l 0,0 c 0.0611,-0.62043 0.12229,-1.24087 0.18344,-1.8613 0.44086,-3.87624 0.55868,-7.69974 -0.20923,-11.55793 -0.65225,-4.23941 -1.35209,-8.47801 -2.20516,-12.68 -0.84388,-3.5572 -1.83902,-7.02563 -3.39863,-10.35215 -1.20996,-3.82665 -2.34203,-7.67312 -3.81108,-11.414 -0.88468,-3.13425 -1.86979,-6.20507 -3.18083,-9.19403 -0.84457,-3.52003 -0.95536,-7.08453 -0.80677,-10.6945 0.0573,-3.63418 0.12217,-7.27823 0.66691,-10.8797 0.59171,-3.62194 1.5811,-7.1653 2.45781,-10.72362 1.20551,-3.78503 2.39715,-7.22902 5.90111,-9.54519 3.10189,-2.1625 6.968,-3.04667 9.56644,-5.96024 2.4833,-2.50206 4.20007,-5.27799 4.27171,-8.92435 -0.0392,-3.18982 -0.0663,-6.38559 -0.41196,-9.5607 -0.4437,-3.68223 -1.19263,-7.29371 -2.0726,-10.89469 -1.09761,-4.44001 -2.23698,-8.86912 -3.38855,-13.29516 -1.40308,-5.15088 -3.00528,-10.38822 -5.6745,-15.03112 -2.84519,-4.20068 -6.44367,-7.59997 -10.96646,-9.98091 -0.73052,-0.3073 -1.43516,-0.68536 -2.19156,-0.92189 -0.72253,-0.22593 -2.9799,-0.41363 -2.22423,-0.45894 22.92364,-1.37456 11.02065,0.29821 5.78307,-0.093 -3.39182,0.0617 -6.80699,0.11881 -10.14506,0.78926 -3.14406,0.70041 -6.32157,1.54675 -9.18027,3.05892 -2.92544,1.76814 -5.86031,3.50786 -8.62121,5.53267 -3.15647,1.98656 -6.16195,4.21751 -9.42493,6.03741 -3.72457,1.88528 -7.53284,3.36232 -10.2125,6.77852 -3.15371,3.17269 -6.31199,6.34453 -9.32028,9.65672 -2.64779,2.99556 -5.10562,6.11772 -7.32454,9.44606 -2.02792,3.22166 -3.45181,6.74003 -4.11868,10.50369 -0.5504,3.48285 -1.5013,6.92389 -1.20621,10.48288 0.36191,4.08639 1.75405,7.97214 2.36912,12.02474 0.22048,1.28764 0.57506,3.03025 0.57529,4.34667 4.2e-4,2.41961 -0.79893,4.83189 -1.08282,7.21825 -0.67166,4.2932 -0.40487,8.37565 2.11622,12.09428 2.16115,3.74781 4.08193,7.63765 5.99801,11.51444 2.10957,4.39559 3.94324,8.88367 4.90343,13.68657 0.60543,3.68526 0.93904,7.42038 1.35083,11.13119 -0.0276,4.00039 -0.0439,8.00414 -0.29975,11.99796 -0.29803,3.99901 -1.07006,7.92247 -1.73032,11.87367 -0.45753,4.53593 -1.09169,9.07447 -0.81549,13.64454 0,0 -14.13999,0 -14.13999,0 z"
       inkscape:connector-curvature="0" />
    <path
       style="opacity:1;fill:#000080;fill-opacity:0.74509804;stroke:#0000ff;stroke-width:3.5;stroke-miterlimit:4;stroke-dasharray:none;stroke-opacity:0.74509804"
       id="path6690"
       d="m 201.85885,357.76155 c 1.55266,4.85727 2.9813,9.74986 4.50303,14.61669 1.31074,4.74328 3.43803,9.23249 5.49074,13.69464 1.8207,4.68789 4.2003,9.12388 6.02495,13.80632 1.48642,3.45653 2.79301,6.98315 4.20454,10.4681 1.54132,3.18111 2.84142,6.52623 3.77528,9.93879 0.59193,3.44166 1.85814,6.69463 2.86137,10.02212 1.31094,3.43538 3.02057,6.7033 4.38402,10.11939 1.68735,4.43534 3.51015,8.68806 6.4124,12.46926 2.95068,3.72082 6.92999,6.338 10.71175,9.11939 3.42796,2.7437 6.81941,5.52853 10.22366,8.30412 3.06596,2.03534 6.24548,3.82715 9.15798,6.0966 2.94753,1.98735 5.71066,4.21571 8.58905,6.29835 3.23845,1.97597 5.16373,4.89944 7.07124,8.05668 1.85946,3.61852 4.76875,6.07226 7.90718,8.51568 3.29453,1.91217 6.78212,3.73135 10.41032,4.94849 3.8672,0.83381 7.68455,1.86434 11.41184,3.20107 2.41924,0.60589 4.50235,2.0515 6.77028,2.9943 2.23911,0.93082 4.68421,1.33465 7.05477,1.75409 7.9694,0.0962 -6.29165,0.0183 -9.43678,-0.0369 -0.67757,-0.0119 1.3542,-0.0575 2.03061,-0.0989 1.91346,-0.11699 3.82469,-0.28998 5.73711,-0.42417 3.18941,-0.0617 6.27971,-0.44444 8.53887,-2.85747 1.46272,-2.48186 2.55035,-5.15361 3.66086,-7.80431 1.11625,-3.368 2.1953,-6.75213 3.29177,-10.12906 1.22699,-3.63968 1.48414,-7.46245 1.66641,-11.2676 0.12055,-3.88768 0.10827,-7.77819 0.0934,-11.66727 0.3472,-4.3156 -1.70588,-7.80511 -4.12351,-11.18697 -2.93836,-3.72047 -6.81721,-6.38468 -10.51342,-9.25875 -3.36581,-2.69317 -6.57994,-5.53302 -9.62236,-8.5856 -2.78826,-2.92609 -5.74079,-5.6996 -8.3709,-8.77041 -2.314,-3.33945 -4.72249,-6.59528 -7.36626,-9.6811 -2.77044,-3.34006 -5.21211,-6.85716 -6.95944,-10.83595 -1.58806,-3.65633 -2.35775,-7.58566 -3.79995,-11.29034 -1.88444,-3.94543 -3.7265,-7.95947 -5.01847,-12.14301 -0.69014,-3.58511 -1.9521,-6.93467 -3.47286,-10.23046 -1.35197,-3.18489 -2.69786,-6.37523 -3.7666,-9.66999 -1.43317,-2.93852 -1.74772,-6.22285 -2.78539,-9.27381 0,0 14.09616,-0.44792 14.09616,-0.44792 l 0,0 c 0.97958,3.0735 1.42123,6.31207 2.78369,9.27455 1.07632,3.23907 2.42166,6.3758 3.76371,9.5115 1.52363,3.3505 2.68551,6.7935 3.44286,10.40518 1.34297,4.14165 3.14123,8.12762 5.0033,12.05873 1.40133,3.69692 2.21272,7.58898 3.81428,11.21419 1.75254,3.84883 4.22261,7.20806 6.93644,10.43944 2.60114,3.10797 4.93819,6.40278 7.3507,9.65559 2.69608,2.98256 5.57684,5.79206 8.37642,8.6769 3.02617,2.99114 6.23978,5.7654 9.57174,8.41199 3.80164,2.91054 7.64648,5.79493 10.53156,9.68421 2.49203,3.64025 4.56481,7.47862 4.21795,12.03969 -0.002,3.91112 0.0172,7.82326 -0.12478,11.73259 -0.16424,3.92806 -0.39694,7.8824 -1.6479,11.64377 -1.09385,3.41706 -2.22232,6.82198 -3.2591,10.2554 -1.17958,2.75519 -2.31063,5.52139 -3.66155,8.20179 -2.11152,2.9374 -5.13134,4.04921 -8.7242,4.00485 -8.69714,0.54921 -17.45755,1.56938 -26.16082,0.37509 -4.86771,-1.06098 -9.24098,-3.15486 -13.86813,-4.9334 -3.7746,-1.22743 -7.62525,-2.1421 -11.43669,-3.23001 -3.62722,-1.44707 -7.25253,-3.14104 -10.44774,-5.39141 -3.20295,-2.55884 -6.00626,-5.34678 -7.96094,-9.01077 -1.87091,-3.01468 -3.95829,-5.61579 -7.04088,-7.5016 -2.87861,-2.08811 -5.65427,-4.31246 -8.58523,-6.32941 -2.96174,-2.18246 -6.21416,-3.89997 -9.12653,-6.14752 -3.39763,-2.75482 -6.74229,-5.5762 -10.21355,-8.23713 -3.85756,-2.84181 -7.79914,-5.65902 -10.70354,-9.53898 -2.83578,-3.94402 -4.74959,-8.2876 -6.46949,-12.81594 -1.45057,-3.43091 -3.20879,-6.73613 -4.45323,-10.25144 -1.01512,-3.33055 -2.20343,-6.61172 -2.83781,-10.04805 -0.98851,-3.35865 -2.27646,-6.63905 -3.79158,-9.79471 -1.36362,-3.49826 -2.70647,-7.00295 -4.13087,-10.47808 -1.82753,-4.64881 -4.16571,-9.07759 -5.99452,-13.72967 -2.05351,-4.52618 -4.23307,-9.05574 -5.50486,-13.87496 -1.48248,-4.85998 -2.8755,-9.75352 -4.61333,-14.52969 0,0 14.12099,-0.50684 14.12099,-0.50684 z"
       inkscape:connector-curvature="0" />
    <path
       style="opacity:1;fill:#000080;fill-opacity:0.74509804;stroke:#0000ff;stroke-width:3.5;stroke-miterlimit:4;stroke-dasharray:none;stroke-opacity:0.74509804"
       id="path6692"
       d="m 461.73017,374.05817 c -3.61284,3.99794 -6.91815,8.27143 -9.92259,12.7429 -2.67116,4.41496 -4.27184,9.35061 -6.3413,14.05569 -1.8981,4.46587 -3.6168,9.007 -5.12058,13.62082 -1.56813,4.11767 -3.72445,7.95732 -5.01816,12.17565 -1.27611,3.82193 -2.19639,7.75984 -2.99228,11.70765 -0.50983,4.10849 -1.04579,8.1539 -2.05378,12.1748 -1.19598,4.42402 -2.72246,8.74168 -3.7277,13.21582 -0.52027,4.26979 -2.2268,8.2211 -3.511,12.28642 -1.55696,3.61232 -2.17255,7.46557 -2.99865,11.2747 -0.8525,3.51201 -1.23644,7.10012 -1.4391,10.70017 -0.43328,4.0848 -0.053,7.21635 1.70085,10.93916 2.10946,3.83415 5.369,6.47187 9.34469,8.14497 0.64299,0.0975 1.27915,0.26621 1.92895,0.29261 0.70173,0.0285 2.80501,-0.10941 2.10298,-0.12879 -3.91732,-0.10812 -7.83991,0.0181 -11.75562,-0.13764 -0.68783,-0.0274 1.36771,-0.15801 2.05013,-0.2483 2.00682,-0.26551 2.03551,-0.29706 4.10802,-0.67087 4.12832,-1.2976 8.3788,-2.11285 12.55672,-3.20832 3.68793,-1.20405 7.16694,-2.85651 10.95159,-3.75656 3.93963,-0.94001 7.8128,-2.14687 11.47018,-3.88887 4.62434,-2.31571 8.28028,-5.90784 11.48642,-9.88907 2.73828,-3.28563 4.57325,-7.13534 5.78028,-11.2118 1.03312,-4.38018 1.7915,-8.8045 2.25609,-13.27934 0.0585,-4.01528 1.49933,-7.78183 2.29483,-11.6725 0.61093,-4.88448 1.61928,-9.70085 2.81189,-14.47262 1.21378,-5.34691 3.38311,-10.40699 4.96723,-15.64821 1.31495,-4.87894 1.57082,-9.9512 2.15304,-14.95112 0.40196,-5.31268 1.23198,-10.57504 1.82599,-15.8668 0.006,-3.99255 0.95863,-7.73569 2.09575,-11.51984 0.9449,-3.19328 1.80628,-6.40856 2.74413,-9.60486 0.49425,-1.70743 0.75259,-3.46381 1.00658,-5.21816 0,0 14.09467,0.20155 14.09467,0.20155 l 0,0 c -0.26057,1.81977 -0.52815,3.64041 -1.00316,5.42013 -0.94379,3.19909 -1.78843,6.4209 -2.73953,9.61609 -1.13015,3.70473 -2.18506,7.33569 -2.17473,11.26296 -0.6025,5.29224 -1.48315,10.55066 -1.85865,15.86868 -0.57415,5.08544 -0.80295,10.24245 -2.13731,15.2057 -1.60026,5.21229 -3.74899,10.25793 -4.96858,15.57676 -1.18416,4.7439 -2.22368,9.53738 -2.75354,14.40381 -0.73659,3.86638 -2.22301,7.57372 -2.29267,11.54891 -0.5042,4.547 -1.27528,9.04917 -2.27512,13.51409 -1.14097,4.26525 -3.03405,8.31321 -5.82587,11.76036 -3.19473,4.16504 -6.92115,7.93199 -11.55563,10.49478 -3.61921,1.95722 -7.46927,3.20213 -11.44236,4.26154 -3.84473,0.72018 -7.33727,2.22879 -10.96711,3.63886 -4.10739,1.38223 -8.52905,1.69967 -12.58339,3.34088 -8.56316,1.8384 -17.83881,2.75269 -26.33595,0.55843 -4.04028,-2.07216 -7.29673,-5.05823 -9.40503,-9.13921 -1.65626,-3.78822 -2.24853,-7.48924 -1.74761,-11.61589 0.2032,-3.67771 0.58435,-7.33901 1.4387,-10.93099 0.88075,-3.83724 1.41286,-7.76288 3.04658,-11.39354 1.26359,-4.03304 2.96851,-7.93993 3.49361,-12.17077 1.01919,-4.48605 2.54946,-8.81091 3.73367,-13.25291 1.02718,-3.99278 1.53069,-8.01483 2.05353,-12.09946 0.77409,-3.99537 1.68385,-7.98798 2.98044,-11.8463 1.26641,-4.25142 3.38288,-8.1045 5.05042,-12.20458 1.51668,-4.66467 3.24026,-9.2528 5.18543,-13.75641 2.08694,-4.77756 3.70735,-9.77146 6.31533,-14.30507 3.00599,-4.50353 6.34813,-8.77651 9.83593,-12.91568 0,0 14.08235,0.99959 14.08235,0.99959 z"
       inkscape:connector-curvature="0" />
    <path
       style="opacity:1;fill:#0b5cdd;fill-opacity:0.80473376;stroke:#0000ff;stroke-width:3.5;stroke-miterlimit:4;stroke-dasharray:none;stroke-opacity:0.52071007"
       id="path4151"
       d="m 311.49735,504.72547 c -0.49293,-0.81247 -0.97467,-1.63147 -1.50944,-2.41746 -0.51874,-0.71178 -1.12769,-1.3497 -1.63177,-2.07249 -0.38969,-0.64636 -0.79633,-1.28302 -1.23933,-1.89422 -0.52243,-0.70619 -1.16103,-1.31262 -1.73779,-1.97199 -0.45703,-0.58015 -0.84059,-1.21125 -1.27716,-1.80574 -0.44622,-0.52902 -0.798,-1.12526 -1.19092,-1.69229 -0.46016,-0.61347 -0.99275,-1.16721 -1.52546,-1.71708 -0.088,-0.0895 -0.17603,-0.17906 -0.26405,-0.26859 0,0 2.47751,-0.19227 2.47751,-0.19227 l 0,0 c 0.0878,0.0902 0.17569,0.18041 0.26353,0.27061 0.53795,0.562 1.07408,1.12954 1.53508,1.75788 0.38482,0.56887 0.74685,1.15386 1.18438,1.68543 0.42721,0.5914 0.81085,1.21363 1.26821,1.78329 0.58647,0.66104 1.22738,1.2769 1.7452,1.99643 0.4372,0.61686 0.84324,1.25439 1.24313,1.89591 0.51058,0.71605 1.10997,1.36133 1.61865,2.07889 0.5263,0.79343 1.00166,1.61892 1.53296,2.40888 0,0 -2.49273,0.15481 -2.49273,0.15481 z"
       inkscape:connector-curvature="0" />
    <path
       style="opacity:1;fill:#0b5cdd;fill-opacity:0.80473376;stroke:#0000ff;stroke-width:3.5;stroke-miterlimit:4;stroke-dasharray:none;stroke-opacity:0.52071007"
       id="path4153"
       d="m 334.92652,504.24081 c -1.68531,-1.80343 -3.19869,-3.75484 -4.72311,-5.69343 -2.34683,-2.80816 -4.71372,-5.60246 -7.15833,-8.32649 -1.16185,-1.37162 -2.53655,-2.53463 -3.79605,-3.80982 -0.53332,-0.55672 -0.2739,-0.2838 -0.77855,-0.81847 0,0 2.461,-0.18585 2.461,-0.18585 l 0,0 c 0.49646,0.53195 0.24093,0.26095 0.767,0.81262 1.25351,1.25984 2.56889,2.46164 3.70902,3.83016 2.40177,2.75672 4.76112,5.55135 7.12393,8.34112 1.56149,1.93882 3.10052,3.90791 4.88074,5.65453 0,0 -2.48565,0.19563 -2.48565,0.19563 z"
       inkscape:connector-curvature="0" />
    <path
       style="opacity:1;fill:#0b5cdd;fill-opacity:0.80473376;stroke:#0000ff;stroke-width:3.5;stroke-miterlimit:4;stroke-dasharray:none;stroke-opacity:0.52071007"
       id="path4155"
       d="m 341.49251,480.24968 c -0.87392,-0.81492 -1.75657,-1.61175 -2.70681,-2.3368 -1.39443,-1.00393 -2.7071,-2.10653 -3.98551,-3.25267 -1.12813,-1.04442 -2.14041,-2.20136 -3.20555,-3.30715 -0.487,-0.48379 -0.94879,-0.99522 -1.47378,-1.43842 0,0 2.47923,-0.21116 2.47923,-0.21116 l 0,0 c 0.50749,0.46397 0.97808,0.96611 1.45333,1.4627 1.0377,1.11286 2.03539,2.26514 3.16363,3.29018 1.28267,1.14271 2.61245,2.22476 4.00439,3.23256 0.96124,0.73978 1.85881,1.55032 2.75672,2.36514 0,0 -2.48565,0.19562 -2.48565,0.19562 z"
       inkscape:connector-curvature="0" />
    <path
       style="opacity:1;fill:#0b5cdd;fill-opacity:0.80473376;stroke:#0000ff;stroke-width:3.5;stroke-miterlimit:4;stroke-dasharray:none;stroke-opacity:0.52071007"
       id="path4157"
       d="m 343.94399,530.60754 c -0.0224,1.11734 -0.0186,2.23502 -0.0241,3.35253 -0.008,1.65829 -0.009,3.31656 -0.01,4.97486 -0.002,1.75245 9.7e-4,3.50491 -3.6e-4,5.25737 -0.006,1.75472 -2.3e-4,3.50943 0.004,5.26415 0.002,1.50896 0.001,3.01794 0.005,4.5269 0.003,1.09869 0.008,2.19737 0.0156,3.29604 0.003,0.80523 -1.4e-4,1.61046 0.001,2.41569 0.0591,0.71 0.16144,1.415 0.21018,2.12593 0.0587,0.41265 0.12169,0.82417 0.2263,1.22767 0,0 -2.49233,0.0609 -2.49233,0.0609 l 0,0 c -0.10064,-0.41879 -0.16731,-0.84391 -0.22318,-1.27104 -0.0522,-0.71623 -0.14803,-1.42767 -0.20337,-2.1435 0.001,-0.80523 -0.002,-1.61046 0.001,-2.41569 0.007,-1.09867 0.0126,-2.19735 0.0156,-3.29604 0.003,-1.50896 0.003,-3.01794 0.005,-4.5269 0.005,-1.75472 0.0103,-3.50943 0.004,-5.26415 -0.001,-1.75246 0.002,-3.50492 -3.6e-4,-5.25737 -6.7e-4,-1.6583 -0.001,-3.31657 -0.01,-4.97486 -0.005,-1.11751 -0.002,-2.23519 -0.0241,-3.35253 0,0 2.49948,0 2.49948,0 z"
       inkscape:connector-curvature="0" />
    <path
       style="opacity:1;fill:#0b5cdd;fill-opacity:0.80473376;stroke:#0000ff;stroke-width:3.5;stroke-miterlimit:4;stroke-dasharray:none;stroke-opacity:0.52071007"
       id="path4159"
       d="m 367.39805,514.23658 c -0.13372,1.28899 -0.2767,2.57696 -0.37303,3.86956 -0.1111,1.76551 -0.12293,3.53514 -0.1409,5.30344 -0.0273,2.93161 -0.0344,5.86337 -0.0399,8.79509 0.007,3.11102 0.008,6.22206 0.017,9.33308 0.0121,2.45662 0.0105,4.91326 0.0157,7.36989 0.005,1.66171 0.0213,3.32338 0.0254,4.9851 0.004,1.28258 -7.7e-4,2.56517 0.002,3.84776 0.002,0.97933 0.008,1.95865 0.0138,2.93797 0.0107,0.1087 0.0214,0.2174 0.0321,0.3261 0,0 -2.489,0.0222 -2.489,0.0222 l 0,0 c -0.009,-0.11611 -0.0189,-0.23223 -0.0283,-0.34834 0.006,-0.97932 0.0118,-1.95864 0.0138,-2.93797 0.002,-1.28259 -0.002,-2.56518 0.002,-3.84777 0.004,-1.66171 0.0203,-3.32338 0.0255,-4.98509 0.005,-2.45663 0.004,-4.91326 0.0154,-7.36987 0.008,-3.111 0.009,-6.22202 0.0135,-9.33304 -0.007,-2.93216 -0.0208,-5.86431 -0.0327,-8.79646 0.001,-1.77356 0.004,-3.54853 0.11341,-5.31944 0.0875,-1.29528 0.24099,-2.58407 0.31905,-3.87987 0,0 2.49592,0.0276 2.49592,0.0276 z"
       inkscape:connector-curvature="0" />
    <path
       style="opacity:1;fill:#0b5cdd;fill-opacity:0.80473376;stroke:#0000ff;stroke-width:3.5;stroke-miterlimit:4;stroke-dasharray:none;stroke-opacity:0.52071007"
       id="path4161"
       d="m 401.5527,505.33819 c 0.11799,1.36324 0.13939,2.73286 0.1585,4.10036 0.0192,2.483 0.007,4.96606 -9.2e-4,7.44908 -0.009,2.95428 0.003,5.90855 0.004,8.86283 -0.0232,1.8568 0.0555,3.71526 -0.0605,5.5701 -0.0854,1.36588 -0.11904,1.4331 -0.30136,2.78819 -0.57659,2.7331 -0.97161,5.49646 -1.40002,8.25475 -0.42461,2.5961 -0.5532,5.22455 -0.83879,7.83674 -0.19547,1.42845 -0.43166,2.85096 -0.56365,4.28722 -0.0623,0.72993 -0.0681,1.46296 -0.0706,2.19505 -0.004,0.93563 -0.005,1.87125 -10e-4,2.80688 10e-4,0.62141 3.2e-4,0.31597 0.003,0.91633 0,0 -2.47797,2.1e-4 -2.47797,2.1e-4 l 0,0 c 0.002,-0.60028 10e-4,-0.29488 10e-4,-0.91619 10e-4,-0.93598 -0.005,-1.87192 -0.0105,-2.80788 10e-4,-0.74037 0.002,-1.48223 0.0813,-2.21936 0.15875,-1.43779 0.41951,-2.86008 0.63335,-4.29022 0.32448,-2.61207 0.44161,-5.24533 0.86794,-7.84527 0.42558,-2.75733 0.82361,-5.51857 1.40025,-8.25019 0.0624,-0.45902 0.13719,-0.91652 0.18713,-1.37705 0.25045,-2.30944 0.16027,-4.63156 0.17414,-6.94935 0.002,-2.95423 0.0157,-5.90846 0.006,-8.86269 -0.0101,-2.48155 -0.0159,-4.96333 -0.0611,-7.44453 -0.0331,-1.3592 -0.0526,-2.72406 -0.22934,-4.07393 0,0 2.49909,-0.0311 2.49909,-0.0311 z"
       inkscape:connector-curvature="0" />
    <path
       style="opacity:1;fill:#0b5cdd;fill-opacity:0.80473376;stroke:#0000ff;stroke-width:3.5;stroke-miterlimit:4;stroke-dasharray:none;stroke-opacity:0.52071007"
       id="path4163"
       d="m 417.96146,500.24894 c 1.32985,-1.14767 2.6042,-2.35901 3.81896,-3.62734 1.9536,-2.39001 3.60742,-5.01405 5.25639,-7.61934 0.32483,-0.52774 0.65429,-1.05266 0.97449,-1.58322 1.18758,-1.96781 0.8057,-1.41939 2.05115,-3.40375 1.15009,-1.83242 2.36472,-3.6228 3.57242,-5.41735 1.87669,-2.75858 3.79963,-5.48684 5.6437,-8.26764 0.58352,-0.88361 0.31515,-0.46434 0.80913,-1.2552 0,0 2.45072,0.13969 2.45072,0.13969 l 0,0 c -0.52193,0.7963 -0.23882,0.37558 -0.85361,1.25927 -1.91679,2.75572 -3.87372,5.48346 -5.76102,8.25975 -1.20677,1.78897 -2.41513,3.57618 -3.55667,5.40795 -1.28198,2.05712 -0.81345,1.36199 -2.03311,3.40504 -0.31742,0.53172 -0.64447,1.05764 -0.9667,1.58646 -1.63569,2.61629 -3.28307,5.24273 -5.19136,7.67047 -1.19287,1.27052 -2.45037,2.47693 -3.73255,3.65717 0,0 -2.48194,-0.21196 -2.48194,-0.21196 z"
       inkscape:connector-curvature="0" />
    <path
       style="opacity:1;fill:#0b5cdd;fill-opacity:0.80473376;stroke:#0000ff;stroke-width:3.5;stroke-miterlimit:4;stroke-dasharray:none;stroke-opacity:0.52071007"
       id="path4165"
       d="m 436.36468,512.1264 c 1.25337,-1.34865 2.28183,-2.87659 3.29776,-4.40548 2.51626,-4.09415 4.54347,-8.4747 6.4808,-12.8661 1.58314,-3.73484 3.03141,-7.527 4.36262,-11.35853 0.6929,-1.74019 1.23298,-3.5356 1.90557,-5.28274 0.49279,-1.17362 1.06247,-2.31375 1.66045,-3.43697 0.64241,-1.2887 1.36922,-2.53177 2.07098,-3.78845 0.7453,-1.22092 1.30591,-2.53832 1.96943,-3.80223 0,0 2.46211,0.12135 2.46211,0.12135 l 0,0 c -0.68837,1.25543 -1.25392,2.57517 -1.9919,3.80448 -0.69253,1.25848 -1.42514,2.49515 -2.05845,3.78544 -0.59903,1.11353 -1.14945,2.25446 -1.66924,3.40658 -0.67996,1.75043 -1.25796,3.53895 -1.97837,5.27423 -1.41438,3.82129 -2.89314,7.62001 -4.48726,11.37033 -1.94026,4.38614 -3.95658,8.76035 -6.37124,12.90816 -0.97616,1.54639 -1.97039,3.07778 -3.16761,4.46556 0,0 -2.48565,-0.19563 -2.48565,-0.19563 z"
       inkscape:connector-curvature="0" />
    <path
       style="opacity:1;fill:#0b5cdd;fill-opacity:0.80473376;stroke:#0000ff;stroke-width:3.5;stroke-miterlimit:4;stroke-dasharray:none;stroke-opacity:0.52071007"
       id="path4167"
       d="m 466.9592,500.2643 c 0.0285,-1.42059 0.0272,-2.84163 0.029,-4.26245 10e-4,-1.78177 0.003,-3.56354 0.004,-5.3453 0.009,-2.08262 0.008,-4.16526 0.007,-6.24789 0.0177,-1.68536 -0.0538,-3.37217 0.0118,-5.05665 0.0551,-1.19581 0.23066,-2.38214 0.43869,-3.5596 0.12579,-0.77284 0.32999,-1.52737 0.43702,-2.30366 0.006,-0.65995 0.18731,-1.28056 0.35408,-1.91178 0.14933,-0.62004 0.18994,-1.25662 0.29654,-1.8842 0,0 2.49083,0.0425 2.49083,0.0425 l 0,0 c -0.11058,0.63408 -0.14827,1.27735 -0.29821,1.90469 -0.15768,0.62413 -0.35514,1.23058 -0.35405,1.88345 -0.1108,0.78054 -0.31528,1.53812 -0.45592,2.3128 -0.21154,1.16647 -0.40496,2.34015 -0.45898,3.52637 -0.0792,1.68027 -0.0217,3.36453 -0.0486,5.04612 -10e-4,2.08263 -0.002,4.16527 0.007,6.24789 9.5e-4,1.78176 0.003,3.56353 0.004,5.3453 0.002,1.42082 4.6e-4,2.84186 0.029,4.26245 0,0 -2.49301,0 -2.49301,0 z"
       inkscape:connector-curvature="0" />
    <flowRoot
       xml:space="preserve"
       id="flowRoot4169"
       style="fill:black;stroke:none;stroke-opacity:1;stroke-width:1px;stroke-linejoin:miter;stroke-linecap:butt;fill-opacity:1;font-family:sans-serif;font-style:normal;font-weight:normal;font-size:17.5px;line-height:125%;letter-spacing:0px;word-spacing:0px;"><flowRegion
         id="flowRegion4171"><rect
           id="rect4173"
           width="220"
           height="62.142857"
           x="44.285713"
           y="270.21936"
           style="font-size:17.5px;" /></flowRegion><flowPara
         id="flowPara4175"></flowPara></flowRoot>    <text
       xml:space="preserve"
       style="font-style:normal;font-weight:normal;font-size:22.5px;line-height:125%;font-family:sans-serif;letter-spacing:0px;word-spacing:0px;fill:#000000;fill-opacity:1;stroke:none;stroke-width:1px;stroke-linecap:butt;stroke-linejoin:miter;stroke-opacity:1;"
       x="46.42857"
       y="288.07648"
       id="text4177"
       sodipodi:linespacing="125%"><tspan
         sodipodi:role="line"
         id="tspan4179"
         x="46.42857"
         y="288.07648" /></text>
    <text
       xml:space="preserve"
       style="font-style:normal;font-weight:normal;font-size:30px;line-height:125%;font-family:sans-serif;letter-spacing:0px;word-spacing:0px;fill:#000000;fill-opacity:1;stroke:none;stroke-width:1px;stroke-linecap:butt;stroke-linejoin:miter;stroke-opacity:1"
       x="38.57143"
       y="278.07648"
       id="text4181"
       sodipodi:linespacing="125%"><tspan
         sodipodi:role="line"
         id="tspan4183"
         x="38.57143"
         y="278.07648">A stack is when</tspan></text>
    <text
       xml:space="preserve"
       style="font-style:normal;font-weight:normal;font-size:40px;line-height:125%;font-family:sans-serif;letter-spacing:0px;word-spacing:0px;fill:#000000;fill-opacity:1;stroke:none;stroke-width:1px;stroke-linecap:butt;stroke-linejoin:miter;stroke-opacity:1"
       x="30.714291"
       y="336.64792"
       id="text4185"
       sodipodi:linespacing="125%"><tspan
         sodipodi:role="line"
         id="tspan4187"
         x="30.714291"
         y="336.64792">(HTML/CSS)</tspan></text>
    <text
       xml:space="preserve"
       style="font-style:normal;font-weight:normal;font-size:22.5px;line-height:125%;font-family:sans-serif;letter-spacing:0px;word-spacing:0px;fill:#000000;fill-opacity:1;stroke:none;stroke-width:1px;stroke-linecap:butt;stroke-linejoin:miter;stroke-opacity:1;text-anchor:middle;text-align:center;"
       x="551.5025"
       y="275.93362"
       id="text4189"
       sodipodi:linespacing="125%"><tspan
         sodipodi:role="line"
         id="tspan4191"
         x="449.28571"
         y="275.93362">multiple programs</tspan><tspan
         sodipodi:role="line"
         x="449.28571"
         y="304.05862"
         id="tspan4193">and languages</tspan></text>
    <text
       xml:space="preserve"
       style="font-style:normal;font-weight:normal;font-size:40px;line-height:125%;font-family:sans-serif;letter-spacing:0px;word-spacing:0px;fill:#000000;fill-opacity:1;stroke:none;stroke-width:1px;stroke-linecap:butt;stroke-linejoin:miter;stroke-opacity:1"
       x="477.14285"
       y="348.07648"
       id="text4195"
       sodipodi:linespacing="125%"><tspan
         sodipodi:role="line"
         id="tspan4197"
         x="477.14285"
         y="348.07648">(JavaScript)</tspan></text>
    <text
       xml:space="preserve"
       style="font-style:normal;font-weight:normal;font-size:35px;line-height:125%;font-family:sans-serif;letter-spacing:0px;word-spacing:0px;fill:#000000;fill-opacity:1;stroke:none;stroke-width:1px;stroke-linecap:butt;stroke-linejoin:miter;stroke-opacity:1"
       x="242.14287"
       y="712.36218"
       id="text4199"
       sodipodi:linespacing="125%"><tspan
         sodipodi:role="line"
         id="tspan4201"
         x="242.14287"
         y="712.36218">Work Together!</tspan></text>
    <text
       xml:space="preserve"
       style="font-style:normal;font-weight:normal;font-size:35px;line-height:125%;font-family:sans-serif;letter-spacing:0px;word-spacing:0px;fill:#ff7f2a;fill-opacity:1;stroke:#d45500;stroke-width:1px;stroke-linecap:butt;stroke-linejoin:miter;stroke-opacity:1;"
       x="260.71426"
       y="771.64795"
       id="text4203"
       sodipodi:linespacing="125%"><tspan
         sodipodi:role="line"
         id="tspan4205"
         x="260.71426"
         y="771.64795">(LAMP Stack)</tspan></text>
    <path
       style="opacity:1;fill:#ff7f2a;fill-opacity:0.80473376;stroke:#d45500;stroke-width:5;stroke-miterlimit:4;stroke-dasharray:none;stroke-opacity:0.52071007"
       d="m 322.42081,507.7883 c -2.22707,-0.9456 -7.10211,-5.6675 -10.83343,-10.49313 -5.10256,-6.59901 -7.66988,-8.77386 -10.35715,-8.77386 -4.56689,0 -4.4993,0.56204 0.88502,7.3603 2.45186,3.09573 4.17574,5.91079 3.83085,6.25567 -1.73961,1.73962 -13.84568,-6.53231 -18.33291,-12.52664 -2.78643,-3.7223 -9.86283,-10.1155 -15.72534,-14.20713 -22.97606,-16.03569 -30.61877,-23.20083 -35.3807,-33.16986 -2.45052,-5.13012 -5.52706,-13.04622 -6.83677,-17.59134 -1.30971,-4.54512 -6.24272,-17.26386 -10.96226,-28.26386 -7.52857,-17.54711 -13.86397,-34.9683 -13.89703,-38.21428 -0.006,-0.58929 16.03029,-1.07143 35.63622,-1.07143 l 35.64714,0 1.37276,4.64286 c 0.75502,2.55357 4.03638,11.71428 7.2919,20.35714 3.25552,8.64286 7.15608,19.1553 8.66791,23.36098 3.94723,10.98062 14.74879,24.76271 32.78618,41.83304 15.18611,14.37192 15.72983,15.09496 15.72983,20.91766 0,6.96144 -1.05752,7.41665 -5.71429,2.45975 -3.38683,-3.60512 -7.72295,-4.67146 -9.21023,-2.26499 -0.44408,0.71854 2.77294,4.49755 7.14893,8.39781 l 7.95634,7.09138 -2.39235,8.22941 -2.39235,8.2294 -7.81214,-8.77008 c -5.4989,-6.17318 -8.83588,-8.77007 -11.26945,-8.77007 -1.90153,0 -3.45732,0.34843 -3.45732,0.77428 0,0.42586 4.17857,5.56551 9.28572,11.42145 5.10714,5.85594 9.28571,11.21827 9.28571,11.91631 0,2.15116 -6.68237,2.68157 -10.95079,0.86923 z"
       id="path4207"
       inkscape:connector-curvature="0" />
    <path
       style="opacity:1;fill:#ff7f2a;fill-opacity:0.80473376;stroke:#d45500;stroke-width:5;stroke-miterlimit:4;stroke-dasharray:none;stroke-opacity:0.52071007"
       d="m 344.30276,661.02131 c 0.66643,-4.91071 1.19118,-16.32143 1.1661,-25.35714 l -0.0456,-16.42857 -6.29509,-12.85715 c -5.7462,-11.73607 -6.34378,-13.97821 -6.85351,-25.71428 -1.27802,-29.42546 -1.16759,-31.04261 2.57334,-37.68617 l 3.5236,-6.25759 0.71429,14.11474 c 0.67298,13.29854 0.90015,14.14113 3.92857,14.57123 3.18817,0.4528 3.21428,0.3095 3.21428,-17.63661 0,-16.03196 0.33832,-18.56823 2.96977,-22.26377 2.5413,-3.56893 9.42743,-8.41326 11.95929,-8.41326 0.43188,0 0.78523,10.28571 0.78523,22.85714 l 0,22.85715 3.57143,0 3.57143,0 0.17857,-24.28572 c 0.0982,-13.35714 0.25893,-24.92077 0.35714,-25.69694 0.53201,-4.20443 19.33852,-12.50089 24.151,-10.65417 4.3649,1.67497 5.0311,17.09909 1.72433,39.92254 -2.86674,19.78637 -2.81155,20.71429 1.23207,20.71429 3.23772,0 3.41767,-0.59833 5.04826,-16.78572 0.92998,-9.23214 1.84096,-20.96428 2.02441,-26.07143 l 0.33355,-9.28571 2.64608,5.71428 c 3.94744,8.52461 9.44744,31.53186 9.44744,39.51994 0,7.58983 -1.65668,9.90941 -11.42857,16.0016 -6.26244,3.90425 -10.06818,14.10156 -11.07271,29.66883 -0.63964,9.91263 -0.17716,12.51185 5.08376,28.57143 5.91689,18.062 8.84609,30.08483 8.84609,36.30852 l 0,3.50111 -32.28312,0 -32.28312,0 1.21169,-8.92857 z"
       id="path4209"
       inkscape:connector-curvature="0" />
    <path
       style="opacity:1;fill:#ff7f2a;fill-opacity:0.80473376;stroke:#d45500;stroke-width:5;stroke-miterlimit:4;stroke-dasharray:none;stroke-opacity:0.52071007"
       d="m 425.11209,510.86167 c -4,-4.45395 -4.72573,-7.59849 -2.23143,-9.66858 1.7044,-1.41452 16.58605,-22.88632 22.54872,-32.53412 0.6144,-0.99412 -0.49968,-1.56623 -3.04995,-1.56623 -3.48537,0 -5.05873,1.62962 -11.87003,12.29441 -4.31865,6.76192 -8.03243,11.40475 -8.25285,10.3174 -0.22042,-1.08734 1.55909,-8.3439 3.95448,-16.12568 2.39538,-7.78178 5.66063,-20.55436 7.25611,-28.38351 4.59495,-22.5478 17.04741,-53.48774 26.07052,-64.77597 l 5.9768,-7.47718 17.39916,-0.0676 17.39917,-0.0676 -2.59372,9.06976 c -1.42654,4.98836 -3.3512,16.07765 -4.277,24.64285 -0.92581,8.56521 -3.22933,21.03739 -5.11893,27.71596 -3.63969,12.86402 -7.02828,28.90235 -8.60214,40.71428 -0.98332,7.37987 -5.424,19.28572 -7.19325,19.28572 -0.55248,0 -0.64015,-6.10715 -0.19482,-13.57143 0.80101,-13.42604 0.77465,-13.57143 -2.46034,-13.57143 -3.95688,0 -5.0329,4.75055 -5.0567,22.32508 -0.0101,7.54163 -0.64155,12.12167 -1.80143,13.06853 -2.10757,1.72047 -17.01534,6.28153 -17.839,5.45787 -0.31206,-0.31206 0.97641,-3.68488 2.86327,-7.49515 1.88687,-3.81027 4.94781,-10.7849 6.80209,-15.49919 1.85429,-4.71428 4.52989,-10.5 5.94577,-12.85714 3.25581,-5.42024 3.22922,-5.92688 -0.36042,-6.86559 -3.72926,-0.97522 -6.65681,3.63779 -13.47885,21.239 -9.02436,23.2833 -15.91756,30.98476 -21.83523,24.39552 z"
       id="path4211"
       inkscape:connector-curvature="0" />
  </g>
</svg>
